<svg aria-hidden="true" style="position: absolute; width: 0; height: 0; overflow: hidden;" version="1.1" xmlns="http://www.w3.org/2000/svg" xmlns:xlink="http://www.w3.org/1999/xlink">
<defs>
<symbol id="icon-logo" viewBox="0 0 68 32">
<path fill="#85171a" style="fill: var(--color1, #85171a)" d="M7.821 25.143h-4.326l0.027-3.616h4.299c0.893 0 1.647-0.214 2.263-0.643 0.625-0.429 1.098-1.067 1.42-1.915 0.33-0.857 0.496-1.911 0.496-3.161v-0.844c0-0.938-0.094-1.759-0.281-2.464-0.179-0.714-0.446-1.308-0.804-1.781-0.357-0.482-0.804-0.844-1.339-1.085-0.527-0.241-1.134-0.362-1.821-0.362h-4.339v-3.63h4.339c1.321 0 2.531 0.228 3.63 0.683 1.107 0.446 2.062 1.089 2.866 1.929 0.813 0.83 1.438 1.817 1.875 2.96 0.446 1.134 0.67 2.393 0.67 3.777v0.817c0 1.375-0.223 2.634-0.67 3.777-0.438 1.143-1.058 2.13-1.862 2.96s-1.754 1.473-2.853 1.929c-1.089 0.446-2.286 0.67-3.589 0.67zM6.188 5.643v19.5h-4.701v-19.5h4.701z"></path>
<path fill="#dc2025" style="fill: var(--color2, #dc2025)" d="M27.919 19.96c0-0.304-0.045-0.576-0.134-0.817-0.089-0.25-0.254-0.482-0.495-0.696s-0.589-0.429-1.045-0.643c-0.446-0.223-1.036-0.455-1.768-0.696-0.857-0.286-1.683-0.607-2.478-0.964-0.795-0.366-1.504-0.79-2.129-1.272-0.625-0.491-1.121-1.062-1.487-1.714-0.366-0.661-0.549-1.429-0.549-2.304 0-0.839 0.188-1.594 0.563-2.263 0.375-0.679 0.897-1.254 1.567-1.728 0.679-0.482 1.473-0.848 2.384-1.098 0.911-0.259 1.906-0.388 2.987-0.388 1.429 0 2.688 0.25 3.777 0.75 1.098 0.491 1.955 1.192 2.571 2.103 0.625 0.902 0.938 1.969 0.938 3.201h-4.674c0-0.491-0.103-0.924-0.308-1.299-0.196-0.375-0.496-0.67-0.897-0.884s-0.906-0.321-1.513-0.321c-0.589 0-1.085 0.089-1.487 0.268s-0.705 0.42-0.911 0.723c-0.205 0.295-0.308 0.62-0.308 0.978 0 0.295 0.080 0.563 0.241 0.804 0.17 0.232 0.406 0.451 0.71 0.656 0.312 0.205 0.688 0.402 1.125 0.589 0.446 0.188 0.946 0.371 1.5 0.549 1.036 0.33 1.955 0.701 2.759 1.112 0.813 0.402 1.496 0.862 2.049 1.38 0.563 0.509 0.987 1.089 1.272 1.741 0.295 0.652 0.442 1.388 0.442 2.21 0 0.875-0.17 1.652-0.509 2.33s-0.826 1.254-1.46 1.728c-0.634 0.464-1.393 0.817-2.277 1.058s-1.87 0.362-2.96 0.362c-1 0-1.987-0.125-2.96-0.375-0.964-0.259-1.839-0.652-2.625-1.179-0.786-0.536-1.415-1.219-1.888-2.049-0.464-0.839-0.696-1.835-0.696-2.987h4.714c0 0.571 0.076 1.054 0.228 1.446s0.375 0.71 0.67 0.951c0.295 0.232 0.656 0.402 1.085 0.509 0.429 0.098 0.92 0.147 1.473 0.147 0.598 0 1.080-0.085 1.446-0.254 0.366-0.179 0.634-0.411 0.804-0.696 0.17-0.295 0.254-0.616 0.254-0.964z"></path>
<path fill="#feba08" style="fill: var(--color3, #feba08)" d="M38.668 5.643v19.5h-4.688v-19.5h4.688z"></path>
<path fill="#000" style="fill: var(--color4, #000)" opacity="0.6" d="M40.984 10.286v-4.063h1.2c0.359 0 0.677 0.080 0.954 0.24 0.279 0.16 0.495 0.387 0.647 0.681s0.229 0.631 0.229 1.010v0.204c0 0.385-0.077 0.724-0.232 1.016-0.153 0.292-0.371 0.517-0.656 0.675-0.283 0.158-0.607 0.237-0.974 0.237h-1.169zM41.69 6.792v2.93h0.46c0.37 0 0.654-0.115 0.851-0.346 0.199-0.232 0.3-0.566 0.304-0.999v-0.226c0-0.441-0.096-0.777-0.287-1.010s-0.47-0.349-0.834-0.349h-0.494zM48.275 9.281l0.625-3.058h0.7l-0.938 4.063h-0.675l-0.773-2.966-0.79 2.966h-0.678l-0.938-4.063h0.7l0.631 3.052 0.776-3.052h0.592l0.767 3.058zM51.233 10.286h-0.703v-4.063h0.703v4.063zM52.473 10.286v-4.063h1.2c0.359 0 0.677 0.080 0.954 0.24 0.279 0.16 0.495 0.387 0.647 0.681s0.229 0.631 0.229 1.010v0.204c0 0.385-0.077 0.724-0.232 1.016-0.153 0.292-0.371 0.517-0.656 0.675-0.283 0.158-0.607 0.237-0.974 0.237h-1.169zM53.178 6.792v2.93h0.46c0.37 0 0.654-0.115 0.851-0.346 0.199-0.232 0.3-0.566 0.304-0.999v-0.226c0-0.441-0.096-0.777-0.287-1.010s-0.47-0.349-0.834-0.349h-0.494zM58.79 9.34h-1.574l-0.329 0.946h-0.734l1.535-4.063h0.633l1.537 4.063h-0.737l-0.332-0.946zM57.414 8.771h1.178l-0.589-1.685-0.589 1.685zM62.817 9.239c0-0.179-0.063-0.316-0.19-0.413-0.125-0.097-0.351-0.194-0.678-0.293s-0.587-0.208-0.781-0.329c-0.37-0.232-0.555-0.536-0.555-0.91 0-0.327 0.133-0.597 0.399-0.809 0.267-0.212 0.614-0.318 1.041-0.318 0.283 0 0.535 0.052 0.756 0.156s0.395 0.253 0.522 0.446c0.127 0.192 0.19 0.405 0.19 0.639h-0.703c0-0.212-0.067-0.378-0.201-0.497-0.132-0.121-0.322-0.181-0.569-0.181-0.231 0-0.41 0.049-0.538 0.148-0.127 0.099-0.19 0.236-0.19 0.413 0 0.149 0.069 0.274 0.206 0.374 0.138 0.099 0.365 0.195 0.681 0.29 0.317 0.093 0.57 0.2 0.762 0.321 0.192 0.119 0.332 0.257 0.422 0.413 0.089 0.154 0.134 0.336 0.134 0.544 0 0.338-0.13 0.608-0.391 0.809-0.258 0.199-0.61 0.299-1.054 0.299-0.294 0-0.565-0.054-0.812-0.162-0.246-0.11-0.437-0.26-0.575-0.452-0.136-0.192-0.203-0.415-0.203-0.67h0.706c0 0.231 0.076 0.409 0.229 0.536s0.371 0.19 0.656 0.19c0.245 0 0.43-0.049 0.553-0.148 0.125-0.1 0.187-0.232 0.187-0.396zM66.787 9.34h-1.574l-0.33 0.946h-0.734l1.535-4.063h0.633l1.538 4.063h-0.737l-0.332-0.946zM65.411 8.771h1.178l-0.589-1.685-0.589 1.685z"></path>
<path fill="#263238" style="fill: var(--color5, #263238)" opacity="0.8" d="M43.122 16.096c0-0.084-0.013-0.158-0.039-0.223-0.024-0.065-0.068-0.125-0.131-0.179s-0.153-0.106-0.268-0.156c-0.114-0.052-0.259-0.105-0.435-0.159-0.194-0.060-0.372-0.126-0.536-0.198-0.162-0.074-0.303-0.16-0.424-0.257-0.121-0.099-0.215-0.211-0.282-0.338-0.067-0.128-0.1-0.276-0.1-0.444 0-0.166 0.034-0.316 0.103-0.452 0.071-0.136 0.17-0.253 0.299-0.352 0.13-0.1 0.284-0.178 0.46-0.232 0.177-0.056 0.372-0.084 0.586-0.084 0.301 0 0.561 0.056 0.778 0.167 0.219 0.112 0.388 0.261 0.505 0.449 0.119 0.188 0.179 0.395 0.179 0.622h-0.695c0-0.134-0.029-0.252-0.087-0.354-0.056-0.104-0.141-0.186-0.257-0.246-0.114-0.059-0.258-0.089-0.432-0.089-0.166 0-0.303 0.025-0.413 0.075s-0.192 0.118-0.246 0.204c-0.054 0.086-0.081 0.182-0.081 0.29 0 0.076 0.018 0.146 0.053 0.209 0.035 0.061 0.089 0.119 0.162 0.173 0.073 0.052 0.164 0.101 0.273 0.148s0.239 0.091 0.388 0.134c0.225 0.067 0.421 0.141 0.589 0.223 0.167 0.080 0.307 0.171 0.419 0.273s0.195 0.219 0.251 0.349c0.056 0.128 0.084 0.274 0.084 0.438 0 0.171-0.034 0.326-0.103 0.463-0.069 0.136-0.167 0.252-0.296 0.349-0.126 0.095-0.279 0.168-0.458 0.22-0.177 0.050-0.374 0.075-0.592 0.075-0.195 0-0.388-0.026-0.578-0.078-0.188-0.052-0.359-0.131-0.513-0.237-0.154-0.108-0.277-0.242-0.368-0.402-0.091-0.162-0.137-0.351-0.137-0.566h0.7c0 0.132 0.022 0.245 0.067 0.338 0.047 0.093 0.111 0.169 0.193 0.229 0.082 0.058 0.177 0.1 0.285 0.128 0.11 0.028 0.227 0.042 0.352 0.042 0.164 0 0.3-0.023 0.41-0.070 0.112-0.047 0.195-0.112 0.251-0.195s0.084-0.18 0.084-0.29zM46.112 13.622l-1.214 3.521h-0.734l1.529-4.063h0.469l-0.050 0.541zM47.128 17.143l-1.217-3.521-0.053-0.541h0.472l1.535 4.063h-0.737zM47.069 15.636v0.555h-2.21v-0.555h2.21zM48.689 13.080h0.625l1.175 3.133 1.172-3.133h0.625l-1.551 4.063h-0.497l-1.548-4.063zM48.405 13.080h0.594l0.103 2.712v1.35h-0.698v-4.063zM51.976 13.080h0.597v4.063h-0.7v-1.35l0.103-2.712zM55.628 16.096c0-0.084-0.013-0.158-0.039-0.223-0.024-0.065-0.068-0.125-0.131-0.179s-0.153-0.106-0.268-0.156c-0.113-0.052-0.258-0.105-0.435-0.159-0.193-0.060-0.372-0.126-0.536-0.198-0.162-0.074-0.303-0.16-0.424-0.257-0.121-0.099-0.215-0.211-0.282-0.338-0.067-0.128-0.1-0.276-0.1-0.444 0-0.166 0.034-0.316 0.103-0.452 0.071-0.136 0.17-0.253 0.299-0.352 0.13-0.1 0.284-0.178 0.46-0.232 0.177-0.056 0.372-0.084 0.586-0.084 0.301 0 0.561 0.056 0.778 0.167 0.219 0.112 0.388 0.261 0.505 0.449 0.119 0.188 0.179 0.395 0.179 0.622h-0.695c0-0.134-0.029-0.252-0.086-0.354-0.056-0.104-0.141-0.186-0.257-0.246-0.114-0.059-0.258-0.089-0.432-0.089-0.166 0-0.303 0.025-0.413 0.075s-0.192 0.118-0.246 0.204c-0.054 0.086-0.081 0.182-0.081 0.29 0 0.076 0.018 0.146 0.053 0.209 0.035 0.061 0.089 0.119 0.162 0.173 0.073 0.052 0.164 0.101 0.273 0.148s0.239 0.091 0.388 0.134c0.225 0.067 0.421 0.141 0.589 0.223 0.167 0.080 0.307 0.171 0.419 0.273s0.195 0.219 0.251 0.349c0.056 0.128 0.084 0.274 0.084 0.438 0 0.171-0.034 0.326-0.103 0.463-0.069 0.136-0.167 0.252-0.296 0.349-0.127 0.095-0.279 0.168-0.458 0.22-0.177 0.050-0.374 0.075-0.592 0.075-0.195 0-0.388-0.026-0.578-0.078-0.188-0.052-0.359-0.131-0.513-0.237-0.154-0.108-0.277-0.242-0.368-0.402-0.091-0.162-0.137-0.351-0.137-0.566h0.7c0 0.132 0.022 0.245 0.067 0.338 0.047 0.093 0.111 0.169 0.193 0.229 0.082 0.058 0.177 0.1 0.285 0.128 0.11 0.028 0.227 0.042 0.352 0.042 0.164 0 0.3-0.023 0.41-0.070 0.112-0.047 0.195-0.112 0.251-0.195s0.084-0.18 0.084-0.29zM58.618 13.622l-1.214 3.521h-0.734l1.529-4.063h0.469l-0.050 0.541zM59.634 17.143l-1.217-3.521-0.053-0.541h0.471l1.535 4.063h-0.737zM59.575 15.636v0.555h-2.21v-0.555h2.21zM60.911 13.080h1.437c0.309 0 0.572 0.046 0.79 0.14s0.384 0.231 0.499 0.413c0.117 0.18 0.176 0.404 0.176 0.67 0 0.203-0.037 0.381-0.111 0.536s-0.18 0.285-0.315 0.391c-0.136 0.104-0.298 0.185-0.486 0.243l-0.212 0.103h-1.292l-0.005-0.555h0.968c0.167 0 0.307-0.030 0.418-0.089s0.195-0.14 0.251-0.243c0.058-0.104 0.086-0.221 0.086-0.352 0-0.141-0.028-0.264-0.083-0.368-0.054-0.106-0.138-0.187-0.251-0.243-0.113-0.058-0.258-0.086-0.433-0.086h-0.737v3.504h-0.7v-4.063zM63.229 17.143l-0.954-1.825 0.734-0.003 0.968 1.791v0.036h-0.748zM66.178 13.622l-1.214 3.521h-0.734l1.529-4.063h0.469l-0.050 0.541zM67.193 17.143l-1.216-3.521-0.053-0.541h0.471l1.535 4.063h-0.737zM67.135 15.636v0.555h-2.21v-0.555h2.21z"></path>
<path fill="#263238" style="fill: var(--color5, #263238)" d="M41.732 20.509v4.063h-0.7v-4.063h0.7zM45.54 20.509v4.063h-0.7l-1.822-2.91v2.91h-0.7v-4.063h0.7l1.828 2.916v-2.916h0.695zM47.268 24.571h-0.868l0.006-0.555h0.862c0.251 0 0.461-0.055 0.631-0.165 0.171-0.11 0.3-0.267 0.385-0.472 0.087-0.205 0.131-0.448 0.131-0.731v-0.22c0-0.22-0.025-0.414-0.075-0.583-0.048-0.169-0.121-0.312-0.218-0.427-0.095-0.115-0.212-0.203-0.352-0.262-0.138-0.059-0.297-0.089-0.477-0.089h-0.91v-0.558h0.91c0.27 0 0.516 0.046 0.739 0.137 0.223 0.089 0.416 0.219 0.578 0.388 0.164 0.169 0.289 0.372 0.377 0.608s0.131 0.5 0.131 0.792v0.215c0 0.292-0.044 0.556-0.131 0.792s-0.213 0.439-0.377 0.608c-0.164 0.167-0.359 0.297-0.586 0.388-0.225 0.089-0.477 0.134-0.756 0.134zM46.788 20.509v4.063h-0.7v-4.063h0.7zM52.775 22.429v0.223c0 0.307-0.040 0.582-0.12 0.826s-0.194 0.451-0.343 0.622c-0.147 0.171-0.324 0.302-0.53 0.393-0.206 0.089-0.435 0.134-0.686 0.134-0.249 0-0.477-0.045-0.684-0.134-0.205-0.091-0.382-0.222-0.533-0.393s-0.268-0.378-0.352-0.622c-0.082-0.244-0.123-0.519-0.123-0.826v-0.223c0-0.307 0.041-0.581 0.123-0.823 0.082-0.244 0.197-0.451 0.346-0.622 0.151-0.173 0.328-0.304 0.533-0.393 0.206-0.091 0.434-0.137 0.684-0.137 0.251 0 0.48 0.046 0.686 0.137 0.206 0.089 0.384 0.22 0.533 0.393 0.149 0.171 0.263 0.378 0.343 0.622 0.082 0.242 0.123 0.516 0.123 0.823zM52.075 22.652v-0.229c0-0.227-0.022-0.427-0.067-0.6-0.043-0.175-0.107-0.321-0.193-0.438-0.084-0.119-0.187-0.208-0.31-0.268-0.123-0.061-0.261-0.092-0.416-0.092s-0.292 0.031-0.413 0.092c-0.121 0.059-0.224 0.149-0.31 0.268-0.084 0.117-0.148 0.263-0.193 0.438-0.045 0.173-0.067 0.373-0.067 0.6v0.229c0 0.227 0.022 0.428 0.067 0.603s0.11 0.323 0.195 0.444c0.087 0.119 0.192 0.209 0.312 0.271 0.121 0.060 0.259 0.089 0.413 0.089 0.156 0 0.295-0.030 0.416-0.089 0.121-0.061 0.223-0.152 0.307-0.271 0.084-0.121 0.147-0.269 0.19-0.444 0.045-0.175 0.067-0.376 0.067-0.603zM56.412 20.509v4.063h-0.7l-1.822-2.91v2.91h-0.7v-4.063h0.7l1.828 2.916v-2.916h0.695zM59.62 24.016v0.555h-2.157v-0.555h2.157zM57.661 20.509v4.063h-0.7v-4.063h0.7zM59.338 22.205v0.547h-1.875v-0.547h1.875zM59.606 20.509v0.558h-2.143v-0.558h2.143zM62.043 23.525c0-0.084-0.013-0.158-0.039-0.223-0.025-0.065-0.068-0.125-0.131-0.179s-0.153-0.106-0.267-0.156c-0.114-0.052-0.259-0.105-0.435-0.159-0.194-0.060-0.372-0.126-0.536-0.198-0.162-0.074-0.303-0.16-0.424-0.257-0.121-0.099-0.215-0.211-0.282-0.338-0.067-0.128-0.101-0.276-0.101-0.444 0-0.166 0.034-0.316 0.103-0.452 0.071-0.136 0.17-0.253 0.298-0.352 0.13-0.1 0.284-0.178 0.461-0.232 0.177-0.056 0.372-0.084 0.586-0.084 0.302 0 0.561 0.056 0.779 0.167 0.219 0.112 0.387 0.261 0.505 0.449 0.119 0.188 0.179 0.395 0.179 0.622h-0.695c0-0.134-0.029-0.252-0.086-0.354-0.056-0.104-0.142-0.186-0.257-0.246-0.114-0.059-0.258-0.089-0.433-0.089-0.166 0-0.303 0.025-0.413 0.075s-0.191 0.118-0.246 0.204c-0.054 0.086-0.081 0.182-0.081 0.29 0 0.076 0.018 0.146 0.053 0.209 0.035 0.061 0.089 0.119 0.162 0.173 0.073 0.052 0.163 0.101 0.273 0.148s0.239 0.091 0.388 0.134c0.225 0.067 0.421 0.141 0.589 0.223 0.167 0.080 0.307 0.171 0.419 0.273s0.195 0.219 0.251 0.349c0.056 0.128 0.084 0.274 0.084 0.438 0 0.171-0.035 0.326-0.103 0.463-0.069 0.136-0.167 0.252-0.296 0.349-0.126 0.095-0.279 0.168-0.457 0.22-0.177 0.050-0.374 0.075-0.592 0.075-0.195 0-0.387-0.026-0.577-0.078-0.188-0.052-0.359-0.131-0.514-0.237-0.154-0.108-0.277-0.242-0.368-0.402-0.091-0.162-0.137-0.351-0.137-0.566h0.701c0 0.132 0.022 0.245 0.067 0.338 0.047 0.093 0.111 0.169 0.193 0.229 0.082 0.058 0.177 0.1 0.285 0.128 0.11 0.028 0.227 0.042 0.351 0.042 0.164 0 0.301-0.023 0.41-0.070 0.112-0.047 0.195-0.112 0.251-0.195s0.083-0.18 0.083-0.29zM63.828 20.509v4.063h-0.7v-4.063h0.7zM66.045 21.050l-1.214 3.521h-0.734l1.529-4.063h0.469l-0.050 0.541zM67.061 24.571l-1.216-3.521-0.053-0.541h0.471l1.535 4.063h-0.737zM67.002 23.065v0.555h-2.21v-0.555h2.21z"></path>
</symbol>
<symbol id="icon-chevron_down" viewBox="0 0 46 32">
<path d="M0 6.095l23.111 25.905 23.111-25.905-5.438-6.095-17.673 19.81-17.673-19.81-5.438 6.095z"></path>
</symbol>
<symbol id="icon-cogwheel" viewBox="0 0 32 32">
<path fill="#efefef" style="fill: var(--color6, #efefef)" d="M7.446 28.296c6.148 0 10.371 3.185 13.333 3.185s9.185-1.703 9.185-15.332-8.371-15.63-11.629-15.63c-15.26 0-21.778 27.778-10.889 27.778z"></path>
<path fill="#a4afc1" style="fill: var(--color7, #a4afc1)" d="M28.416 6.829l0.629-0.629 1.257 1.257-0.629 0.629-1.257-1.257z"></path>
<path fill="#a4afc1" style="fill: var(--color7, #a4afc1)" d="M24.803 3.215l0.629-0.629 1.257 1.257-0.629 0.629-1.257-1.257z"></path>
<path fill="#a4afc1" style="fill: var(--color7, #a4afc1)" d="M28.417 4.001l1.257-1.257 0.629 0.629-1.257 1.257-0.629-0.629z"></path>
<path fill="#ee4248" style="fill: var(--color8, #ee4248)" d="M17.556 23.333c0 0 0.218 1.569 1.316 2.667h-5.76c1.111-1.111 1.316-2.667 1.316-2.667h3.129z"></path>
<path fill="#f3f3f1" style="fill: var(--color9, #f3f3f1)" d="M25.111 9.556c0.489 0 0.889 0.4 0.889 0.889v9.778h-20v-9.778c0-0.489 0.4-0.889 0.889-0.889h18.222z"></path>
<path fill="#ee4248" style="fill: var(--color8, #ee4248)" d="M6.889 23.333h18.222c0.491 0 0.889-0.398 0.889-0.889v-2.222h-20v2.222c0 0.491 0.398 0.889 0.889 0.889z"></path>
<path fill="#ee4248" style="fill: var(--color8, #ee4248)" d="M22.222 12.667c1.35 0 2.444-1.094 2.444-2.444s-1.094-2.444-2.444-2.444c-1.35 0-2.444 1.094-2.444 2.444s1.094 2.444 2.444 2.444z"></path>
<path fill="#ee4248" style="fill: var(--color8, #ee4248)" d="M10.492 18c-1.011 0-1.826-0.774-1.826-1.733s0.816-1.733 1.826-1.733h0.033c0.195-1.309 1.376-2.311 2.808-2.311 1.136 0 2.118 0.632 2.569 1.548 1.172 0.061 2.098 0.982 2.098 2.111 0 1.171-0.998 2.118-2.232 2.118h-5.276z"></path>
<path fill="#ee4248" style="fill: var(--color8, #ee4248)" d="M14.427 23.333c0 0-0.204 1.556-1.316 2.667h2c1.111-1.111 1.316-2.667 1.316-2.667h-2z"></path>
<path fill="#ee4248" style="fill: var(--color8, #ee4248)" d="M8 22.444v-2.222h-2v2.222c0 0.491 0.398 0.889 0.889 0.889h2c-0.491 0-0.889-0.398-0.889-0.889z"></path>
<path fill="#ee4248" style="fill: var(--color8, #ee4248)" d="M21.778 10.222c0-0.993 0.595-1.844 1.444-2.226-0.306-0.138-0.643-0.219-1-0.219-1.35 0-2.444 1.094-2.444 2.444s1.094 2.444 2.444 2.444c0.357 0 0.694-0.081 1-0.219-0.85-0.382-1.444-1.233-1.444-2.226z"></path>
<path fill="#ee4248" style="fill: var(--color8, #ee4248)" d="M10.667 16.267c0-0.959 0.816-1.733 1.826-1.733h0.033c0.147-0.984 0.85-1.794 1.798-2.136-0.309-0.109-0.641-0.175-0.99-0.175-1.433 0-2.613 1.002-2.808 2.311h-0.033c-1.011 0-1.826 0.774-1.826 1.733s0.816 1.733 1.826 1.733h2c-1.010 0-1.826-0.774-1.826-1.733z"></path>
<path fill="#d5dbe1" style="fill: var(--color10, #d5dbe1)" d="M8.889 9.556h-2c-0.489 0-0.889 0.4-0.889 0.889v9.778h2v-9.778c0-0.489 0.4-0.889 0.889-0.889z"></path>
<path fill="#000" style="fill: var(--color4, #000)" d="M25.111 24h-18.222c-0.858 0-1.556-0.698-1.556-1.556v-12c0-0.858 0.698-1.556 1.556-1.556h9.111v1.333h-9.111c-0.121 0-0.222 0.101-0.222 0.222v12c0 0.121 0.101 0.222 0.222 0.222h18.222c0.121 0 0.222-0.101 0.222-0.222v-7.333h1.333v7.333c0 0.858-0.698 1.556-1.556 1.556z"></path>
<path fill="#000" style="fill: var(--color4, #000)" d="M6 19.556h20v1.333h-20v-1.333z"></path>
<path fill="#000" style="fill: var(--color4, #000)" d="M18.889 26.667h-5.778c-0.27 0-0.513-0.163-0.616-0.412s-0.046-0.536 0.145-0.726c0.93-0.93 1.125-2.271 1.127-2.284l1.321 0.176c-0.006 0.052-0.131 0.948-0.66 1.913h3.131c-0.525-0.96-0.655-1.856-0.663-1.908l1.32-0.186c0.003 0.013 0.198 1.297 1.054 2.212 0.173 0.121 0.286 0.321 0.286 0.548 0 0.368-0.299 0.667-0.667 0.667z"></path>
<path fill="#000" style="fill: var(--color4, #000)" d="M22.222 13.333c-1.716 0-3.111-1.396-3.111-3.111s1.396-3.111 3.111-3.111 3.111 1.396 3.111 3.111c0 1.716-1.396 3.111-3.111 3.111zM22.222 8.444c-0.98 0-1.778 0.797-1.778 1.778s0.797 1.778 1.778 1.778 1.778-0.797 1.778-1.778c0-0.98-0.797-1.778-1.778-1.778z"></path>
<path fill="#000" style="fill: var(--color4, #000)" d="M21.556 12h1.333v3.111h-1.333v-3.111z"></path>
<path fill="#000" style="fill: var(--color4, #000)" d="M21.556 5.333h1.333v3.111h-1.333v-3.111z"></path>
<path fill="#000" style="fill: var(--color4, #000)" d="M23.443 8.721l2.838-1.519 0.629 1.175-2.838 1.519-0.629-1.175z"></path>
<path fill="#000" style="fill: var(--color4, #000)" d="M17.551 12.049l2.838-1.519 0.629 1.175-2.838 1.519-0.629-1.175z"></path>
<path fill="#000" style="fill: var(--color4, #000)" d="M17.553 8.39l0.629-1.175 2.838 1.519-0.629 1.175-2.838-1.519z"></path>
<path fill="#000" style="fill: var(--color4, #000)" d="M23.449 11.715l0.629-1.175 2.838 1.519-0.629 1.175-2.838-1.519z"></path>
<path fill="#000" style="fill: var(--color4, #000)" d="M15.769 18.667h-5.28c-1.372 0-2.489-1.076-2.489-2.4 0-1.158 0.855-2.127 1.988-2.352 0.449-1.376 1.802-2.359 3.346-2.359 0.983 0 1.924 0.396 2.581 1.088l-0.967 0.918c-0.406-0.428-0.995-0.673-1.614-0.673-1.077 0-2.001 0.749-2.149 1.743-0.050 0.326-0.33 0.568-0.66 0.568-0.673 0-1.191 0.478-1.191 1.067s0.518 1.067 1.156 1.067h5.28c0.863 0 1.564-0.65 1.564-1.449 0-0.12-0.012-0.217-0.037-0.308l1.283-0.363c0.060 0.209 0.088 0.428 0.088 0.67 0 1.534-1.3 2.782-2.898 2.782z"></path>
</symbol>
<symbol id="icon-home" viewBox="0 0 34 32">
<path d="M3.368 16.145h-3.368l15.651-15.651c0.658-0.658 1.724-0.658 2.382 0l15.651 15.651h-3.368v13.474c0 0.93-0.754 1.684-1.684 1.684h-23.579c-0.93 0-1.684-0.754-1.684-1.684v-13.474zM6.737 27.934h6.737v-8.421h6.737v8.421h6.737v-13.763l-10.105-10.105-10.105 10.105v13.763z"></path>
</symbol>
<symbol id="icon-image_hero" viewBox="0 0 47 32">
<path fill="#ee4248" style="fill: var(--color8, #ee4248)" d="M4.098 28.64c1.035-0.677 1.297-1.974 1.286-3.15 0-0.195 0.025-0.401-0.065-0.575s-0.307-0.297-0.486-0.218c-0.149 0.064-0.217 0.232-0.303 0.369-0.116 0.184-0.277 0.33-0.468 0.424l-0.007 0.003c-0.127 0.061-0.284 0.097-0.406 0.027-0.166-0.097-0.183-0.332-0.178-0.524l0.034-1.087c0.017-0.195 0.002-0.391-0.045-0.581-0.052-0.192-0.19-0.344-0.369-0.413l-0.004-0.001c-0.187-0.056-0.421 0.045-0.465 0.235-0.009 0.080-0.013 0.161-0.012 0.241 0 0 0 0.001 0 0.002 0 0.084-0.051 0.157-0.124 0.188l-0.001 0c-0.007 0.001-0.015 0.001-0.022 0.001-0.078 0-0.148-0.037-0.192-0.095l-0-0.001c-0.182-0.203-0.334-0.438-0.446-0.695l-0.006-0.017c-0.12-0.28-0.261-0.52-0.427-0.741l0.007 0.009c-0.179-0.219-0.431-0.395-0.712-0.415s-0.586 0.142-0.663 0.415c-0.077 0.271 0.077 0.555 0.249 0.779 0.257 0.338 0.552 0.63 0.883 0.875l0.012 0.008c0.066 0.038 0.117 0.095 0.148 0.164l0.001 0.002c0.039 0.131-0.089 0.256-0.219 0.296-0.149 0.045-0.307 0.026-0.461 0.040s-0.323 0.077-0.385 0.219c-0.083 0.197 0.078 0.41 0.24 0.55 0.313 0.272 0.677 0.495 1.073 0.654l0.026 0.009c0.148 0.044 0.286 0.116 0.41 0.209 0.114 0.102 0.181 0.279 0.107 0.414s-0.256 0.176-0.408 0.143c-0.165-0.050-0.306-0.107-0.441-0.175l0.015 0.007c-0.268-0.106-0.618-0.096-0.797 0.131-0.071 0.098-0.113 0.221-0.113 0.354 0 0.067 0.011 0.132 0.031 0.192l-0.001-0.004c0.062 0.18 0.159 0.346 0.287 0.488 0.414 0.512 0.949 0.91 1.563 1.151l0.026 0.009c0.622 0.23 1.204 0.302 1.833 0.092z"></path>
<path fill="#263238" style="fill: var(--color5, #263238)" d="M0.31 21.785l0.019 0.019 0.058 0.052c0.050 0.046 0.124 0.114 0.218 0.204 0.26 0.251 0.5 0.519 0.719 0.803l0.013 0.017c0.286 0.377 0.59 0.816 0.875 1.268l0.047 0.079c0.244 0.375 0.468 0.806 0.648 1.259l0.018 0.050 0.197 0.487c0.214 0.494 0.437 1.12 0.625 1.762l0.031 0.124c0.136 0.464 0.238 1.010 0.287 1.571l0.002 0.032c0.013 0.15 0.020 0.325 0.020 0.501 0 0.315-0.024 0.625-0.069 0.927l0.004-0.034-0.012 0.077v0.026l0.007-0.025c0-0.019 0.008-0.045 0.014-0.077 0.013-0.067 0.028-0.166 0.044-0.297 0.041-0.365 0.048-0.734 0.020-1.101-0.046-0.593-0.146-1.142-0.297-1.669l0.014 0.059c-0.217-0.766-0.44-1.395-0.697-2.006l0.043 0.114-0.197-0.487c-0.066-0.16-0.131-0.318-0.204-0.47-0.164-0.336-0.32-0.613-0.49-0.88l0.021 0.035c-0.166-0.261-0.327-0.503-0.481-0.729-0.166-0.245-0.313-0.445-0.467-0.641l0.019 0.025c-0.295-0.376-0.612-0.707-0.96-1.006l-0.009-0.008-0.059-0.050-0.021-0.017z"></path>
<path fill="#263238" style="fill: var(--color5, #263238)" d="M2.745 25.052c0.010-0.027 0.017-0.054 0.021-0.083 0.012-0.054 0.027-0.131 0.042-0.228 0.034-0.193 0.070-0.461 0.107-0.756 0.052-0.413 0.107-0.747 0.172-1.077l-0.016 0.095c0.008-0.027 0.012-0.054 0.013-0.083-0.013 0.027-0.022 0.054-0.028 0.084-0.015 0.052-0.034 0.129-0.054 0.224-0.042 0.192-0.083 0.458-0.123 0.754s-0.072 0.555-0.096 0.758c-0.013 0.090-0.023 0.166-0.031 0.229-0.006 0.027-0.008 0.055-0.008 0.083z"></path>
<path fill="#263238" style="fill: var(--color5, #263238)" d="M0.225 24.525c0.033 0.008 0.067 0.013 0.101 0.014 0.462 0.052 0.861 0.119 1.252 0.205l-0.080-0.015c0.348 0.072 0.662 0.154 0.884 0.218 0.113 0.032 0.203 0.059 0.266 0.079 0.032 0.012 0.065 0.021 0.098 0.025-0.025-0.013-0.056-0.026-0.088-0.037l-0.005-0.002c-0.062-0.023-0.151-0.054-0.263-0.089-0.223-0.071-0.536-0.156-0.885-0.23-0.297-0.064-0.599-0.113-0.901-0.147-0.112-0.013-0.244-0.021-0.376-0.022h-0.001zM3.78 27.855c0.008-0.009 0.013-0.019 0.018-0.030l0.045-0.090c0.039-0.078 0.093-0.191 0.157-0.331 0.13-0.284 0.295-0.681 0.472-1.121s0.34-0.839 0.462-1.123l0.147-0.338 0.040-0.092c0.008-0.022 0.013-0.034 0.011-0.034-0.008 0.010-0.013 0.020-0.018 0.030l-0.046 0.090c-0.039 0.078-0.092 0.191-0.157 0.332-0.091 0.181-0.25 0.55-0.401 0.923l-0.071 0.197c-0.327 0.841-0.532 1.323-0.744 1.801l0.134-0.339-0.039 0.092c-0.005 0.011-0.009 0.022-0.012 0.034z"></path>
<path fill="#263238" style="fill: var(--color5, #263238)" d="M0.442 26.705s0.011 0.007 0.033 0.014l0.096 0.034 0.359 0.124c0.302 0.105 0.716 0.254 1.175 0.42 0.111 0.054 0.502 0.193 0.896 0.327l0.283 0.083c0.152 0.050 0.276 0.088 0.362 0.112l0.098 0.028c0.023 0.007 0.036 0.008 0.036 0.008-0.010-0.005-0.021-0.010-0.032-0.014l-0.001-0-0.096-0.035-0.358-0.123c-0.302-0.105-0.716-0.254-1.175-0.419-0.105-0.052-0.496-0.192-0.89-0.325l-0.289-0.085c-0.152-0.049-0.276-0.088-0.362-0.113l-0.1-0.028c-0.010-0.004-0.021-0.007-0.033-0.008l-0.001-0z"></path>
<path fill="#455a64" style="fill: var(--color11, #455a64)" d="M37.73 19.895l-4.999-0.023c-0.599-0.002-1.084-0.488-1.084-1.087 0-0.002 0-0.005 0-0.007v0l0.053-12.501c0.004-0.598 0.489-1.081 1.087-1.081 0.002 0 0.005 0 0.007 0l5 0.022c0.599 0.003 1.084 0.489 1.084 1.089 0 0 0 0.001 0 0.001v-0l-0.054 12.501c-0.002 0.6-0.488 1.085-1.088 1.085-0.002 0-0.005 0-0.007-0h0z"></path>
<path fill="#fff" style="fill: var(--color12, #fff)" d="M37.787 5.653h-0.97c-0.131 0.002-0.236 0.108-0.236 0.24 0 0.001 0 0.003 0 0.004v-0 0.176c0 0.001 0 0.002 0 0.003 0 0.132-0.105 0.239-0.236 0.242h-0l-1.89-0.009c-0.13-0.003-0.235-0.109-0.235-0.24 0-0.003 0-0.006 0-0.010v0-0.178c0-0.003 0-0.006 0-0.009 0-0.097-0.058-0.18-0.14-0.217l-0.002-0.001c-0.027-0.012-0.059-0.020-0.092-0.021h-1.189c-0.001 0-0.002 0-0.003 0-0.419 0-0.759 0.338-0.762 0.757v0l-0.053 12.202c0 0 0 0.001 0 0.002 0 0.42 0.34 0.761 0.761 0.762h0l4.989 0.023c0.001 0 0.003 0 0.004 0 0.419 0 0.76-0.338 0.763-0.757v-0l0.051-12.203c0-0.002 0-0.004 0-0.006 0-0.42-0.34-0.761-0.76-0.761h-0z"></path>
<path fill="#455a64" style="fill: var(--color11, #455a64)" d="M37.705 13.956h-4.938v0.33h4.938v-0.33zM37.529 15.256c0 0.012-1.054 0.022-2.354 0.022-1.298 0-2.354-0.010-2.354-0.022s1.054-0.022 2.354-0.022c1.301 0 2.354 0.010 2.354 0.022zM37.529 7.424c0 0.012-1.054 0.021-2.354 0.021-1.298 0-2.354-0.008-2.354-0.021s1.054-0.022 2.354-0.022c1.301 0 2.354 0.008 2.354 0.022zM37.529 15.858c0 0.012-1.054 0.022-2.354 0.022-1.298 0-2.354-0.010-2.354-0.022s1.054-0.022 2.354-0.022c1.301 0 2.354 0.009 2.354 0.022zM37.529 16.457c0 0.012-1.054 0.022-2.354 0.022-1.298 0-2.354-0.010-2.354-0.022s1.054-0.021 2.354-0.021c1.301 0 2.354 0.012 2.354 0.021zM37.529 17.061c0 0.011-1.054 0.021-2.354 0.021-1.298 0-2.354-0.010-2.354-0.021s1.054-0.022 2.354-0.022c1.301 0 2.354 0.008 2.354 0.022zM37.529 17.661c0 0.013-1.054 0.022-2.354 0.022-1.298 0-2.354-0.009-2.354-0.022s1.054-0.022 2.354-0.022c1.301 0 2.354 0.010 2.354 0.022zM37.596 18.343c0 0.012-1.054 0.022-2.354 0.022-1.298 0-2.354-0.010-2.354-0.022s1.054-0.022 2.354-0.022c1.301 0 2.354 0.009 2.354 0.022z"></path>
<path fill="#e0e0e0" style="fill: var(--color13, #e0e0e0)" d="M37.771 8.107h-4.951v4.789h4.951v-4.789z"></path>
<path fill="#ee4248" style="fill: var(--color8, #ee4248)" d="M33.205 12.487l1.37-2.465 1.12 1.575 0.68-0.836 1.013 1.726h-4.183zM36.172 9.542c0 0.197-0.16 0.357-0.357 0.357s-0.357-0.16-0.357-0.357v0c0-0.197 0.16-0.357 0.357-0.357s0.357 0.16 0.357 0.357v0z"></path>
<path fill="#455a64" style="fill: var(--color11, #455a64)" d="M37.386 12.499v-0.291c0-0.19 0-0.465-0.005-0.814 0-0.699-0.006-1.696-0.010-2.891l0.020 0.019h-4.182l0.023-0.023v3.998l-0.020-0.020 3.886 0.015-0.849 0.005-3.058 0.011v-4.018c-0.022 0.021 0.028-0.030 0.024-0.024h4.19v0.035l-0.011 2.904c0 0.347 0 0.62-0.005 0.809v0.266c0 0.007-0.001 0.013-0.002 0.019zM11.75 0.958v11.041c0 0.528 0.429 0.957 0.957 0.957h16.679c0.528 0 0.957-0.428 0.957-0.957v-11.041c0-0.529-0.428-0.958-0.956-0.958h-16.679c-0.529 0-0.957 0.429-0.957 0.958v0z"></path>
<path fill="#fff" style="fill: var(--color12, #fff)" d="M13.021 0.409v12.138h15.528v-12.138h-15.528z"></path>
<path fill="#263238" style="fill: var(--color5, #263238)" d="M29.408 5.981c0.009-0.001 0.019-0.001 0.029-0.001 0.275 0 0.498 0.223 0.498 0.498s-0.223 0.498-0.498 0.498c-0.010 0-0.020-0-0.030-0.001l0.001 0c-0.266-0.011-0.477-0.23-0.477-0.497s0.211-0.486 0.476-0.497l0.001-0zM12.286 4.627v3.7c0 0.056 0.045 0.101 0.101 0.101h0.003c0.056 0 0.101-0.044 0.101-0.101v-3.699c0-0.056-0.045-0.101-0.101-0.101h-0.004c-0.055 0-0.101 0.045-0.101 0.101z"></path>
<path fill="#455a64" style="fill: var(--color11, #455a64)" d="M25.042 1.32h-4.938v0.331h4.938v-0.331zM18.609 7h-4.937v0.331h4.937v-0.331zM26.245 2.55c0 0.013-1.375 0.022-3.067 0.022s-3.071-0.009-3.071-0.022c0-0.013 1.374-0.022 3.071-0.022s3.066 0.010 3.066 0.022zM26.245 3.272c0 0.012-1.375 0.022-3.067 0.022s-3.071-0.010-3.071-0.022 1.374-0.022 3.071-0.022c1.696 0 3.066 0.009 3.066 0.022zM26.245 3.993c0 0.012-1.375 0.021-3.067 0.021s-3.071-0.009-3.071-0.021 1.374-0.022 3.071-0.022c1.696 0 3.066 0.010 3.066 0.022zM26.245 4.714c0 0.013-1.375 0.022-3.067 0.022s-3.071-0.008-3.071-0.022c0-0.012 1.374-0.021 3.071-0.021s3.066 0.010 3.066 0.021zM26.245 5.434c0 0.012-1.375 0.022-3.067 0.022s-3.071-0.010-3.071-0.022 1.374-0.022 3.071-0.022c1.696 0 3.066 0.011 3.066 0.022zM24.897 6.157c0 0.012-1.072 0.022-2.396 0.022s-2.398-0.010-2.398-0.022 1.072-0.022 2.397-0.022c1.324 0 2.397 0.010 2.397 0.022zM21.782 8.3c0 0.012-1.804 0.022-4.028 0.022s-4.028-0.010-4.028-0.022 1.804-0.021 4.028-0.021c2.225 0 4.028 0.008 4.028 0.021zM21.782 8.901c0 0.012-1.804 0.021-4.028 0.021s-4.028-0.008-4.028-0.021 1.804-0.022 4.028-0.022c2.225 0 4.028 0.010 4.028 0.022zM21.782 9.503c0 0.012-1.804 0.021-4.028 0.021s-4.028-0.009-4.028-0.021 1.804-0.022 4.028-0.022c2.225 0 4.028 0.009 4.028 0.022zM21.782 10.103c0 0.013-1.804 0.022-4.028 0.022s-4.028-0.009-4.028-0.022 1.804-0.022 4.028-0.022c2.225 0 4.028 0.010 4.028 0.022zM21.782 10.706c0 0.011-1.804 0.021-4.028 0.021s-4.028-0.010-4.028-0.022 1.804-0.021 4.028-0.021c2.225 0 4.028 0.009 4.028 0.021z"></path>
<path fill="#ee4248" style="fill: var(--color8, #ee4248)" d="M18.676 1.15h-4.95v4.79h4.951v-4.79z"></path>
<path fill="#e0e0e0" style="fill: var(--color13, #e0e0e0)" d="M14.109 5.53l1.371-2.465 1.119 1.575 0.68-0.837 1.014 1.726h-4.183zM17.076 2.586c0 0 0 0.001 0 0.001 0 0.197-0.159 0.356-0.356 0.356s-0.356-0.159-0.356-0.355v-0c0-0 0-0.001 0-0.001 0-0.197 0.159-0.356 0.356-0.356s0.356 0.159 0.356 0.355v0z"></path>
<path fill="#455a64" style="fill: var(--color11, #455a64)" d="M18.292 5.544v-0.292c0-0.19 0-0.465-0.005-0.813 0-0.699-0.005-1.696-0.009-2.892l0.019 0.020h-4.182c-0.006 0.005 0.044-0.044 0.023-0.023v3.995l-0.021-0.021 3.886 0.016-0.849 0.006-3.058 0.010v-4.019l0.025-0.025h4.202v0.021l-0.010 2.905c0 0.347-0.004 0.62-0.005 0.809v0.265c0 0.014-0.007 0.028-0.017 0.038z"></path>
<path fill="#ee4248" style="fill: var(--color8, #ee4248)" d="M26.396 7.635h-3.503v3.389h3.503v-3.389z"></path>
<path fill="#e0e0e0" style="fill: var(--color13, #e0e0e0)" d="M23.165 10.734l0.968-1.744 0.793 1.115 0.482-0.592 0.716 1.221h-2.96zM25.264 8.651c0 0.137-0.111 0.249-0.249 0.249s-0.249-0.111-0.249-0.249v0c0-0.137 0.111-0.249 0.249-0.249s0.249 0.111 0.249 0.249v0z"></path>
<path fill="#455a64" style="fill: var(--color11, #455a64)" d="M26.124 10.743v-0.786c0-0.498-0.004-1.2-0.008-2.046l0.015 0.014h-2.96c-0.004 0 0.031-0.032 0.017-0.016v2.827l-0.014-0.014 2.131 0.016h0.611l-0.601 0.004-2.164 0.008v-2.83l0.017-0.017h2.976v0.013c0 0.85-0.006 1.558-0.008 2.056 0 0.249 0 0.439-0.003 0.572v0.188c0 0.010-0.006 0.011-0.007 0.010z"></path>
<path fill="#263238" style="fill: var(--color5, #263238)" d="M28.917 14.265h-23.573c-0.667 0-1.207 0.54-1.208 1.207v14.771c0 0.667 0.541 1.208 1.208 1.208h23.573c0.667 0 1.207-0.541 1.207-1.208v-14.771c0-0.667-0.54-1.207-1.207-1.207z"></path>
<path fill="#263238" style="fill: var(--color5, #263238)" d="M3.049 30.181h28.157v0.029c-0 0.814-0.66 1.474-1.474 1.474h-25.209c-0.814 0-1.474-0.66-1.474-1.474v0-0.029z"></path>
<path fill="#e0e0e0" style="fill: var(--color13, #e0e0e0)" d="M29.355 14.948h-24.522v14.513h24.522v-14.513z"></path>
<path fill="#455a64" style="fill: var(--color11, #455a64)" d="M14.568 30.181l0.35 0.556h4.916l0.324-0.556h-5.591z"></path>
<path fill="#fafafa" style="fill: var(--color14, #fafafa)" d="M28.229 15.915h-22.577v13.541h22.576v-13.541z"></path>
<path fill="#455a64" style="fill: var(--color11, #455a64)" d="M6.616 16.582c0 0 0 0.001 0 0.001 0 0.105-0.085 0.19-0.19 0.19s-0.189-0.084-0.19-0.189v-0c0-0 0-0.001 0-0.001 0-0.105 0.085-0.19 0.19-0.19s0.189 0.084 0.19 0.189v0zM7.388 16.582c0 0 0 0.001 0 0.001 0 0.105-0.085 0.19-0.19 0.19s-0.19-0.085-0.19-0.189v-0c0-0 0-0.001 0-0.001 0-0.105 0.085-0.19 0.19-0.19s0.19 0.085 0.19 0.189v0zM8.162 16.582c0 0 0 0.001 0 0.001 0 0.105-0.085 0.189-0.189 0.189s-0.189-0.084-0.189-0.188v-0c0-0 0-0.001 0-0.001 0-0.105 0.085-0.189 0.189-0.189s0.189 0.084 0.189 0.188v0zM28.229 17.411c0 0.013-5.056 0.022-11.288 0.022s-11.289-0.009-11.289-0.022c0-0.013 5.056-0.022 11.289-0.022s11.288 0.010 11.288 0.022zM30.125 30.192h-25.99v0.083h25.99v-0.084zM12.44 23.991h-4.937v0.33h4.938v-0.33zM18.819 19.404h-4.938v0.331h4.938v-0.331zM26.163 20.635c0 0.012-2.749 0.021-6.14 0.021-3.393 0-6.142-0.009-6.142-0.021s2.749-0.023 6.141-0.023c3.393 0 6.141 0.010 6.141 0.023zM26.163 21.355c0 0.012-2.749 0.022-6.14 0.022-3.393 0-6.142-0.010-6.142-0.022s2.749-0.021 6.141-0.021c3.393 0 6.141 0.013 6.141 0.021zM26.163 22.077c0 0.013-2.749 0.022-6.14 0.022-3.393 0-6.142-0.009-6.142-0.022s2.749-0.022 6.141-0.022c3.393 0 6.141 0.010 6.141 0.022zM26.163 22.799c0 0.012-2.749 0.022-6.14 0.022-3.393 0-6.142-0.010-6.142-0.022s2.749-0.023 6.141-0.023c3.393 0 6.141 0.010 6.141 0.023zM26.163 23.52c0 0.011-2.749 0.021-6.14 0.021-3.393 0-6.142-0.010-6.142-0.021s2.749-0.022 6.141-0.022c3.393 0 6.141 0.008 6.141 0.022zM18.676 24.24c0 0.012-1.074 0.022-2.398 0.022s-2.398-0.010-2.398-0.022c0-0.011 1.077-0.021 2.398-0.021s2.398 0.010 2.398 0.021zM26.072 25.64c0 0.013-1.807 0.022-4.036 0.022s-4.036-0.008-4.036-0.022c0-0.012 1.807-0.021 4.036-0.021s4.036 0.010 4.036 0.021zM26.072 26.407c0 0.011-1.807 0.021-4.036 0.021s-4.036-0.010-4.036-0.021c0-0.012 1.807-0.022 4.036-0.022s4.036 0.010 4.036 0.021zM26.072 27.172c0 0.011-1.807 0.021-4.036 0.021s-4.036-0.010-4.036-0.021c0-0.012 1.807-0.022 4.036-0.022s4.036 0.008 4.036 0.022zM26.072 27.937c0 0.013-1.807 0.022-4.036 0.022s-4.036-0.009-4.036-0.021 1.807-0.022 4.036-0.022c2.23 0 4.036 0.009 4.036 0.022zM12.453 25.567c0 0.012-1.078 0.022-2.404 0.022s-2.403-0.010-2.403-0.022 1.078-0.021 2.404-0.021c1.325 0 2.403 0.008 2.403 0.021zM12.453 26.169c0 0.012-1.078 0.021-2.404 0.021s-2.403-0.008-2.403-0.021 1.078-0.022 2.404-0.022c1.325 0 2.403 0.007 2.403 0.022zM12.453 26.77c0 0.012-1.078 0.021-2.404 0.021s-2.403-0.009-2.403-0.021 1.078-0.022 2.404-0.022c1.325 0 2.403 0.010 2.403 0.022zM12.453 27.371c0 0.013-1.078 0.022-2.404 0.022s-2.403-0.009-2.403-0.022 1.078-0.022 2.404-0.022c1.325 0 2.403 0.010 2.403 0.022zM12.453 27.977c0 0.012-1.078 0.022-2.404 0.022s-2.403-0.010-2.403-0.022 1.078-0.021 2.404-0.021c1.325 0 2.403 0.005 2.403 0.021z"></path>
<path fill="#e0e0e0" style="fill: var(--color13, #e0e0e0)" d="M12.453 18.325h-4.951v4.79h4.951v-4.79z"></path>
<path fill="#ee4248" style="fill: var(--color8, #ee4248)" d="M7.886 22.704l1.37-2.465 1.119 1.575 0.682-0.836 1.011 1.726h-4.183zM10.853 19.76c0 0.197-0.16 0.357-0.357 0.357s-0.357-0.16-0.357-0.357v0c0-0.197 0.16-0.357 0.357-0.357s0.357 0.16 0.357 0.357v0z"></path>
<path fill="#455a64" style="fill: var(--color11, #455a64)" d="M12.069 22.718v-0.291c0-0.19 0-0.464-0.005-0.813 0-0.7-0.006-1.696-0.010-2.893l0.019 0.021h-4.182l0.023-0.023v3.997l-0.021-0.020 3.885 0.016-0.849 0.006-3.056 0.010v-4.018l0.025-0.023h4.202v0.019c0 1.202-0.008 2.203-0.011 2.905 0 0.348 0 0.62-0.005 0.809v0.265c0 0.013-0.015 0.034-0.016 0.034z"></path>
<path fill="#e0e0e0" style="fill: var(--color13, #e0e0e0)" d="M17.381 25.275h-3.503v3.389h3.503v-3.389z"></path>
<path fill="#ee4248" style="fill: var(--color8, #ee4248)" d="M14.149 28.374l0.969-1.743 0.793 1.114 0.482-0.592 0.717 1.221h-2.961zM16.249 26.291c0 0.137-0.111 0.249-0.249 0.249s-0.249-0.111-0.249-0.249v0c0-0.137 0.111-0.249 0.249-0.249s0.249 0.111 0.249 0.249v0z"></path>
<path fill="#455a64" style="fill: var(--color11, #455a64)" d="M17.11 28.384v-0.206c0-0.134 0-0.332-0.004-0.576 0-0.498 0-1.2-0.007-2.046l0.014 0.014h-2.96s0.031-0.031 0.017-0.016v2.829l-0.015-0.015 2.903 0.012h-0.757l-2.164 0.008v-2.84c-0.015 0.013 0.020-0.022 0.017-0.018h2.974v0.014c0 0.85-0.005 1.558-0.008 2.056v0.76c-0.002 0.009-0.005 0.018-0.010 0.025z"></path>
<path fill="#ee4248" style="fill: var(--color8, #ee4248)" d="M46.634 30.215l-0.829-0.099-0.194 1.553 1.213 0.157 0.018-0.096c0.078-0.426 0.364-2.17 0.312-2.467-0.057-0.332-0.519 0.952-0.519 0.952z"></path>
<path fill="#263238" style="fill: var(--color5, #263238)" d="M47.081 29.152c0.015 0-0.042 0.586-0.127 1.303s-0.166 1.297-0.181 1.295 0.044-0.581 0.128-1.303c0.084-0.721 0.166-1.297 0.18-1.295zM46.806 30.141c-0.008 0.012-0.052-0.005-0.091-0.043s-0.056-0.083-0.044-0.090c0.011-0.008 0.046 0.017 0.083 0.053s0.062 0.071 0.053 0.080zM46.872 30.048c-0.007 0.014-0.055 0-0.104-0.036s-0.075-0.083-0.064-0.091 0.052 0.014 0.096 0.049c0.044 0.034 0.079 0.066 0.071 0.080z"></path>
<path fill="#263238" style="fill: var(--color5, #263238)" d="M46.824 31.28c0 0.008-0.021 0.028-0.063 0.059-0.053 0.035-0.101 0.075-0.147 0.121-0.041 0.043-0.072 0.097-0.089 0.157l-0.001 0.003c-0.011 0.047-0.008 0.078-0.017 0.079s-0.023-0.028-0.020-0.083c0.006-0.070 0.035-0.137 0.083-0.189 0.046-0.049 0.101-0.088 0.163-0.118l0.003-0.001c0.052-0.023 0.083-0.032 0.087-0.025zM46.651 30.119c0.013-0.006 0.039 0.025 0.050 0.070 0.009 0.045 0 0.083-0.016 0.083-0.014 0-0.028-0.034-0.037-0.074s-0.012-0.074 0.002-0.080zM46.568 30.132c0.015 0 0.023 0.043 0.017 0.096-0.004 0.054-0.022 0.093-0.036 0.090s-0.023-0.045-0.017-0.096c0.006-0.049 0.022-0.090 0.037-0.090zM46.128 31.792l-4.593-0.466-9.526 0.214 2.532-2.042 6.358-0.305 5.558 0.766-0.329 1.835z"></path>
<path fill="#455a64" style="fill: var(--color11, #455a64)" d="M38.363 30.517c0 0.012-0.894 0.021-1.997 0.021s-1.996-0.008-1.996-0.021 0.893-0.022 1.996-0.022c1.103 0 1.997 0.010 1.997 0.022z"></path>
<path fill="#000" style="fill: var(--color4, #000)" d="M37.919 29.335l0.327 2.054h0.627l-0.477-2.077-0.477 0.023z"></path>
<path fill="#ee4248" style="fill: var(--color8, #ee4248)" d="M40.343 31.417l-0.092-0.829-1.557 0.167 0.121 1.213h0.096c0.433-0.022 2.196-0.139 2.473-0.257 0.314-0.135-1.040-0.293-1.040-0.293z"></path>
<path fill="#263238" style="fill: var(--color5, #263238)" d="M41.417 31.623c0 0.015-0.58 0.092-1.297 0.173s-1.301 0.134-1.303 0.119c-0.001-0.015 0.581-0.092 1.297-0.172s1.301-0.131 1.303-0.12zM40.389 31.584c-0.013-0.006-0.008-0.051 0.021-0.099s0.067-0.074 0.078-0.064c0.011 0.008-0.006 0.049-0.032 0.092s-0.052 0.077-0.067 0.071zM40.496 31.623c-0.014 0-0.013-0.054 0.013-0.109s0.061-0.090 0.074-0.084c0.013 0.008 0 0.053-0.025 0.105-0.025 0.050-0.047 0.096-0.061 0.088z"></path>
<path fill="#263238" style="fill: var(--color5, #263238)" d="M39.285 31.858c-0.004 0.005-0.031-0.013-0.070-0.047-0.047-0.043-0.097-0.081-0.151-0.116-0.050-0.030-0.111-0.048-0.175-0.050l-0.001-0c-0.048 0-0.077 0.009-0.084 0-0.005-0.008 0.023-0.028 0.078-0.039 0.071-0.010 0.143 0.004 0.205 0.042 0.059 0.034 0.111 0.080 0.152 0.135 0.035 0.042 0.050 0.070 0.044 0.075zM40.377 31.427c0.009 0.012-0.014 0.044-0.057 0.064s-0.083 0.019-0.083 0.005 0.025-0.035 0.063-0.053c0.038-0.018 0.070-0.029 0.078-0.017zM40.343 31.349c0 0.015-0.037 0.032-0.089 0.038s-0.096 0-0.096-0.014c0-0.015 0.040-0.032 0.090-0.039s0.092 0.001 0.096 0.015z"></path>
<path fill="#b78876" style="fill: var(--color15, #b78876)" d="M31.233 21.937l1.326-0.024c0.018-0.153 0.044-0.751 0.044-0.751s0.555-0.052 0.596-0.601c0.040-0.549 0.023-1.819 0.023-1.819-0.251-0.13-0.548-0.205-0.863-0.205-0.4 0-0.771 0.122-1.078 0.332l0.007-0.004-0.083 0.059 0.029 3.013z"></path>
<path fill="#263238" style="fill: var(--color5, #263238)" d="M33.039 19.68c-0.013-0.015-0.020-0.034-0.020-0.055 0-0.046 0.038-0.084 0.084-0.084 0.010 0 0.019 0.002 0.028 0.005l-0.001-0c0.031 0.012 0.053 0.042 0.053 0.077 0 0.018-0.006 0.034-0.015 0.047l0-0c-0.015 0.022-0.040 0.037-0.068 0.037-0.024 0-0.045-0.010-0.061-0.027l-0-0z"></path>
<path fill="#263238" style="fill: var(--color5, #263238)" d="M33.179 19.563c-0.008 0.008-0.060-0.036-0.136-0.041s-0.134 0.031-0.141 0.021c-0.008-0.010 0.005-0.022 0.030-0.039 0.028-0.018 0.063-0.029 0.1-0.029 0.046 0 0.089 0.017 0.122 0.045l-0-0c0.025 0.021 0.031 0.038 0.025 0.042zM32.303 19.574c0.018 0.015 0.029 0.038 0.029 0.064 0 0.046-0.038 0.084-0.084 0.084-0.031 0-0.057-0.016-0.072-0.041l-0-0c-0.007-0.012-0.012-0.027-0.012-0.043 0-0.046 0.038-0.084 0.084-0.084 0.021 0 0.040 0.008 0.055 0.020l-0-0z"></path>
<path fill="#263238" style="fill: var(--color5, #263238)" d="M32.35 19.578c-0.009 0.009-0.061-0.035-0.137-0.040s-0.132 0.030-0.141 0.021c-0.008-0.010 0.006-0.022 0.032-0.039 0.028-0.018 0.062-0.029 0.099-0.029 0.047 0 0.089 0.017 0.122 0.045l-0-0c0.025 0.020 0.033 0.038 0.025 0.042zM32.618 20.222c0.040-0.013 0.082-0.019 0.124-0.018 0.019 0 0.036-0.005 0.038-0.015 0.002-0.019-0.002-0.039-0.011-0.058l-0.050-0.157c-0.049-0.134-0.084-0.273-0.105-0.414 0.057 0.114 0.107 0.247 0.143 0.385l0.003 0.014 0.048 0.159c0.011 0.025 0.013 0.055 0.006 0.082-0.007 0.015-0.020 0.026-0.036 0.030l-0 0c-0.011 0.002-0.023 0.002-0.033 0-0.042 0.004-0.084 0.001-0.125-0.008z"></path>
<path fill="#fff" style="fill: var(--color12, #fff)" d="M32.367 20.291c-0.075-0.052 0.209 0.128 0.365 0.13-0.039 0.053-0.101 0.086-0.17 0.086-0.030 0-0.058-0.006-0.084-0.017l0.001 0.001c-0.161-0.070-0.112-0.199-0.112-0.199z"></path>
<path fill="#a36957" style="fill: var(--color16, #a36957)" d="M32.606 21.154c-0.266-0.012-0.509-0.104-0.707-0.251l0.003 0.002s0.145 0.406 0.696 0.39l0.008-0.142z"></path>
<path fill="#263238" style="fill: var(--color5, #263238)" d="M33.262 18.545c0.112-0.003 0.202-0.094 0.202-0.207 0-0.114-0.093-0.207-0.207-0.207-0.040 0-0.078 0.012-0.11 0.031l0.001-0c0.065-0.054 0.118-0.12 0.156-0.195l0.002-0.003c0.013-0.026 0.020-0.057 0.020-0.090 0-0.056-0.022-0.108-0.059-0.145l0 0c-0.037-0.026-0.082-0.041-0.132-0.041-0.039 0-0.075 0.010-0.108 0.026l0.001-0.001c-0.117 0.050-0.209 0.149-0.332 0.191s-0.253 0.021-0.382 0.026c-0.15 0.003-0.287 0.054-0.398 0.139l0.002-0.001c-0.108 0.084-0.176 0.214-0.176 0.359 0 0.003 0 0.006 0 0.010v-0c-0.18-0.021-0.379-0.023-0.521 0.089-0.107 0.095-0.174 0.233-0.174 0.387 0 0.007 0 0.014 0 0.020l-0-0.001c0.014 0.152 0.050 0.302 0.108 0.443 0.010 0.042 0.028 0.080 0.054 0.114l0.067 0.395 0.245-0.005-0.016-0.82s-0.025-0.347 0.274-0.316c0.298 0.031 0.702 0.366 1.282 0.281 0.1-0.005 0.192-0.033 0.273-0.079l-0.003 0.002c0.076-0.048 0.125-0.131 0.125-0.226 0-0.005-0-0.009-0-0.014l0 0.001c-0.010-0.092-0.087-0.162-0.181-0.162-0.005 0-0.010 0-0.015 0.001l0.001-0z"></path>
<path fill="#b78876" style="fill: var(--color15, #b78876)" d="M31.309 19.41c-0.013-0.004-0.409-0.055-0.371 0.415s0.497 0.276 0.497 0.262-0.126-0.677-0.126-0.677z"></path>
<path fill="#a36957" style="fill: var(--color16, #a36957)" d="M31.28 19.932l-0.022 0.013c-0.011 0.006-0.025 0.010-0.039 0.010-0.008 0-0.015-0.001-0.022-0.003l0.001 0c-0.063-0.034-0.106-0.098-0.109-0.173v-0c-0.001-0.008-0.001-0.018-0.001-0.028 0-0.048 0.013-0.094 0.036-0.133l-0.001 0.001c0.010-0.013 0.023-0.022 0.037-0.028 0.004-0.001 0.009-0.002 0.014-0.002 0.016 0 0.029 0.009 0.037 0.021l0 0c0.007 0.013 0.004 0.022 0.007 0.023s0.010-0.008 0.004-0.028c-0.003-0.012-0.011-0.022-0.021-0.028l-0-0c-0.009-0.006-0.021-0.010-0.033-0.010-0.004 0-0.009 0-0.013 0.001l0-0c-0.041 0.011-0.072 0.043-0.083 0.083l-0 0.001c-0.012 0.029-0.019 0.063-0.019 0.099 0 0.012 0.001 0.023 0.002 0.035l-0-0.001c0.002 0.087 0.056 0.161 0.133 0.192l0.001 0c0.005 0.001 0.011 0.002 0.017 0.002 0.022 0 0.041-0.008 0.057-0.021l-0 0c0.017-0.017 0.018-0.026 0.017-0.027z"></path>
<path fill="#455a64" style="fill: var(--color11, #455a64)" d="M30.157 30.132c0.249 0.37 1.756 2.639 3.556 0.988 1.456-1.336 2.794-2.621 4.102-3.935l0.004-0.004 0.682 4.156 2.134-0.116s-0.829-6.189-1.357-6.752c-0.588-0.628-1.128-0.575-5.743 3.067l-3.378 2.595z"></path>
<path fill="#263238" style="fill: var(--color5, #263238)" d="M37.794 23.084l1.994-1.455 0.098 0.157-1.981 1.473-0.111-0.174z"></path>
<path fill="#b78876" style="fill: var(--color15, #b78876)" d="M38.286 23.039s0.267-0.696 0.332-0.844c0.065-0.148 0.162-0.407 0.199-0.415s0.178 0.017 0 0.459c-0.177 0.442 0.216 0.173 0.216 0.173l0.384-0.276s0.303 0.907 0.131 1.181c-0.144 0.215-0.294 0.403-0.457 0.578l0.002-0.002-0.807-0.854z"></path>
<path fill="#ee4248" style="fill: var(--color8, #ee4248)" d="M38.309 22.958c-0.039-0.090-2.576 2.149-3.080 2.225l-1.479-1.925s-0.307-0.488-0.966-1.321c-0.426-0.538-1.6-0.426-1.906 0.23-0.524 1.114-0.531 2.352-0.81 4.761l-0.121 1.629c-0.011 0.131-0.017 0.284-0.017 0.438 0 0.213 0.012 0.422 0.034 0.629l-0.002-0.026c0.045 0.403 0.137 0.828 0.323 0.768l3.383-2.796 0.109-1.269c0.71 0.72 0.932 0.871 1.302 0.813 0.93-0.144 4.188-3.074 4.188-3.074s-0.919-0.991-0.958-1.082z"></path>
<path fill="#263238" style="fill: var(--color5, #263238)" d="M38.83 24.448c-0.069-0.042-0.128-0.089-0.181-0.142l-0-0c-0.275-0.245-0.513-0.523-0.711-0.83l-0.010-0.016c-0.044-0.063-0.082-0.131-0.112-0.202 0.050 0.059 0.096 0.12 0.137 0.184 0.119 0.167 0.23 0.309 0.346 0.447l-0.008-0.010c0.125 0.145 0.248 0.277 0.376 0.404l0.001 0.001c0.058 0.050 0.111 0.106 0.161 0.164zM35.084 25.946c0.002-0.13 0.017-0.259 0.047-0.385 0.017-0.128 0.046-0.256 0.090-0.377-0.002 0.129-0.017 0.258-0.047 0.385-0.016 0.128-0.046 0.255-0.089 0.377zM35.408 25.866c-0.047-0.095-0.086-0.206-0.111-0.322l-0.002-0.009c-0.034-0.1-0.059-0.216-0.070-0.337l-0-0.006c0.047 0.095 0.086 0.206 0.111 0.323l0.002 0.009c0.037 0.111 0.060 0.226 0.070 0.342zM31.746 23.596c0.031 0.034 0.059 0.069 0.084 0.106l0.22 0.3c0.186 0.253 0.447 0.601 0.737 0.982l0.75 0.973 0.226 0.296c0.031 0.035 0.059 0.073 0.084 0.112-0.033-0.032-0.065-0.065-0.092-0.102-0.058-0.067-0.138-0.165-0.237-0.287-0.199-0.245-0.469-0.584-0.761-0.966-0.192-0.246-0.431-0.569-0.664-0.896l-0.063-0.094c-0.090-0.128-0.166-0.234-0.21-0.307-0.028-0.037-0.052-0.075-0.074-0.117zM31.314 25.234c-0.088-0.050-0.168-0.112-0.238-0.184-0.080-0.062-0.151-0.136-0.209-0.218 0.088 0.050 0.168 0.112 0.239 0.185 0.080 0.062 0.15 0.134 0.209 0.217zM31.024 26.168c-0.092 0.188-0.203 0.35-0.333 0.493l0.002-0.002c0.039-0.099 0.089-0.184 0.15-0.26l-0.002 0.002c0.050-0.086 0.111-0.165 0.183-0.235zM31.431 27.456c-0.008 0.008-0.082-0.067-0.165-0.166-0.054-0.055-0.099-0.119-0.132-0.189l-0.002-0.004c0.008-0.008 0.082 0.067 0.165 0.165 0.054 0.055 0.099 0.119 0.132 0.19l0.002 0.004zM30.643 28.282c-0.052 0.061-0.114 0.111-0.183 0.15l-0.003 0.002c-0.063 0.050-0.134 0.090-0.209 0.116 0.052-0.061 0.113-0.111 0.182-0.15l0.003-0.002c0.063-0.050 0.134-0.090 0.209-0.116zM31.745 28.502c-0.090-0.040-0.164-0.1-0.219-0.175l-0.001-0.002c-0.065-0.067-0.113-0.151-0.137-0.245l-0.001-0.004c0.012-0.006 0.072 0.104 0.171 0.219s0.195 0.196 0.188 0.207zM32.774 27.721c-0.060 0.079-0.132 0.149-0.212 0.209-0.069 0.068-0.148 0.126-0.235 0.173l-0.006 0.003c0.060-0.080 0.132-0.15 0.212-0.209 0.069-0.068 0.148-0.127 0.235-0.173l0.005-0.003zM30.657 29.228c-0.142-0.066-0.253-0.179-0.314-0.319l-0.002-0.004c0.010-0.006 0.073 0.073 0.159 0.161s0.164 0.154 0.157 0.163zM32.958 26.982c-0.113 0.066-0.248 0.104-0.393 0.104-0.027 0-0.054-0.001-0.080-0.004l0.003 0c0.155-0.041 0.312-0.075 0.469-0.101zM32.192 26.111c-0.017 0.101-0.045 0.2-0.084 0.296-0.026 0.096-0.059 0.189-0.096 0.281h-0.008c0-0.005 0.004-0.007 0.006-0.007s0 0 0 0.008h-0.008c0.008-0.099 0.031-0.197 0.064-0.291 0.025-0.103 0.069-0.2 0.127-0.288zM32.515 25.558c-0.095-0.040-0.177-0.091-0.249-0.152l0.002 0.001c-0.084-0.052-0.157-0.114-0.219-0.185l-0.001-0.001c0.088 0.039 0.17 0.089 0.244 0.151 0.084 0.050 0.159 0.113 0.224 0.186zM31.853 24.34c-0.025 0.082-0.067 0.159-0.122 0.224-0.046 0.074-0.104 0.136-0.172 0.186l-0.002 0.001c0.037-0.076 0.084-0.147 0.139-0.212 0.044-0.073 0.096-0.14 0.157-0.199zM30.844 24.174c-0.007-0.042-0.010-0.091-0.010-0.14s0.004-0.098 0.011-0.146l-0.001 0.005c0-0.094 0.015-0.188 0.044-0.276 0.014 0.092 0.014 0.187 0 0.28 0 0.094-0.016 0.188-0.045 0.277zM30.45 26.001c-0.018-0.075-0.028-0.161-0.028-0.249 0-0.019 0-0.037 0.001-0.056l-0 0.003c-0.008-0.101-0.003-0.204 0.017-0.302 0.032 0.199 0.035 0.404 0.009 0.605zM30.395 27.753c-0.036-0.051-0.062-0.112-0.073-0.177l-0-0.003c-0.021-0.051-0.034-0.111-0.034-0.173 0-0.006 0-0.012 0-0.019l-0 0.001c0.061 0.107 0.099 0.234 0.107 0.369l0 0.002zM31.791 22.808c-0.066 0.075-0.137 0.146-0.214 0.21-0.067 0.075-0.139 0.145-0.217 0.208 0.047-0.094 0.11-0.173 0.186-0.238l0.001-0.001c0.067-0.075 0.151-0.137 0.243-0.179zM31.198 22.609c-0.011-0.051-0.017-0.109-0.017-0.168 0-0.037 0.002-0.074 0.007-0.11l-0 0.004c-0.003-0.092 0.008-0.184 0.034-0.273 0.017 0.090 0.020 0.183 0.009 0.275 0.003 0.092-0.008 0.184-0.034 0.272zM32.65 22.413c-0.174-0.106-0.321-0.207-0.462-0.316l0.012 0.009c0.174 0.061 0.329 0.168 0.451 0.307zM32.334 23.447c-0.023-0.096-0.032-0.193-0.028-0.291-0.008-0.097-0.003-0.195 0.016-0.291 0.033 0.192 0.037 0.387 0.012 0.581zM33.184 24.052c-0.168-0.034-0.333-0.074-0.498-0.12 0.174-0.010 0.348 0.031 0.498 0.12zM33.242 23.435c-0.029-0.162-0.029-0.327 0-0.488 0.022 0.080 0.030 0.162 0.024 0.243 0.007 0.084-0.002 0.166-0.024 0.245zM33.891 24.47c-0.027-0.101-0.039-0.204-0.036-0.307-0.011-0.103-0.008-0.207 0.008-0.309 0.038 0.204 0.047 0.41 0.028 0.617zM33.392 24.82c-0.008 0.008-0.075-0.053-0.15-0.136s-0.127-0.157-0.117-0.166c0.008-0.008 0.075 0.053 0.15 0.137s0.127 0.157 0.117 0.165zM34.022 25.298c-0.071 0.025-0.154 0.039-0.239 0.039-0.001 0-0.003 0-0.004 0h0c-0.037 0.007-0.080 0.011-0.124 0.011s-0.087-0.004-0.129-0.011l0.004 0.001c0.078-0.028 0.16-0.041 0.243-0.039 0.082-0.016 0.167-0.016 0.249 0zM34.496 25.54c-0.035-0.18-0.042-0.364-0.021-0.546 0.037 0.179 0.044 0.364 0.021 0.546zM34.964 26.447c-0.1 0.019-0.201 0.019-0.302 0-0.106-0.004-0.206-0.029-0.296-0.071l0.005 0.002c0.1 0 0.199 0.008 0.297 0.026 0.107 0.005 0.209 0.020 0.306 0.045l-0.010-0.002zM35.768 26.028c-0.038 0.203-0.102 0.384-0.191 0.55l0.005-0.010c0.010-0.095 0.033-0.188 0.072-0.275 0.023-0.094 0.062-0.183 0.114-0.265zM36.348 25.296c-0.184-0.020-0.353-0.069-0.507-0.142l0.009 0.004c0.172 0.018 0.34 0.065 0.497 0.138zM36.813 25.573c-0.050 0.073-0.109 0.135-0.177 0.187l-0.002 0.001c-0.060 0.062-0.128 0.114-0.204 0.154l-0.004 0.002c0.050-0.074 0.11-0.136 0.178-0.188l0.002-0.001c0.059-0.061 0.128-0.113 0.203-0.154l0.004-0.002zM36.999 24.888c-0.044-0.077-0.073-0.167-0.083-0.264l-0-0.003c-0.014-0.050-0.021-0.108-0.021-0.167 0-0.040 0.004-0.079 0.010-0.117l-0.001 0.004c0.027 0.089 0.044 0.18 0.054 0.272 0.023 0.090 0.036 0.182 0.041 0.274zM37.886 24.73c-0.17 0.17-0.343 0.338-0.517 0.505 0.134-0.207 0.307-0.376 0.511-0.501l0.007-0.004zM37.974 24.413c-0.095-0.013-0.188-0.042-0.274-0.083-0.099-0.029-0.184-0.071-0.262-0.124l0.003 0.002c0.095 0.013 0.188 0.042 0.274 0.083 0.092 0.028 0.179 0.069 0.26 0.121zM37.889 24.073c-0.040-0.065-0.070-0.14-0.086-0.22l-0.001-0.004c-0.028-0.070-0.045-0.151-0.046-0.236v-0.001c0.041 0.070 0.069 0.145 0.084 0.224 0.029 0.075 0.046 0.155 0.049 0.235zM33.25 26.46c-0.010 0.008-0.083-0.075-0.156-0.183-0.050-0.059-0.091-0.127-0.119-0.202l-0.002-0.005c0.062 0.051 0.114 0.111 0.154 0.179l0.002 0.003c0.052 0.062 0.092 0.132 0.121 0.208zM39.569 30.635c-0.013-0.095-0.021-0.142-0.029-0.19l0.007 0.050-0.052-0.401c-0.048-0.348-0.115-0.853-0.214-1.474s-0.235-1.357-0.424-2.166c-0.022-0.11-0.056-0.209-0.102-0.3l0.003 0.006c-0.054-0.093-0.12-0.173-0.197-0.24l-0.001-0.001c-0.148-0.123-0.339-0.198-0.548-0.198-0.019 0-0.038 0.001-0.058 0.002l0.003-0c-0.118 0.007-0.227 0.038-0.324 0.089l0.004-0.002c-0.101 0.056-0.195 0.121-0.285 0.193l-0.57 0.423c-0.854 0.64-1.547 1.187-2.227 1.75l0.099-0.079c-0.637 0.53-1.181 1.002-1.714 1.485l0.045-0.040c-0.236 0.204-0.489 0.367-0.746 0.394-0.026 0.003-0.055 0.005-0.085 0.005-0.094 0-0.184-0.017-0.267-0.048l0.005 0.002c-0.092-0.035-0.179-0.083-0.258-0.142-0.11-0.084-0.208-0.174-0.297-0.272l-0.002-0.002-0.070-0.078c-0.008-0.008-0.017-0.018-0.023-0.028 0.009 0.008 0.018 0.016 0.025 0.025l0.075 0.075c0.092 0.096 0.19 0.183 0.295 0.263l0.006 0.004c0.079 0.056 0.164 0.102 0.256 0.136 0.108 0.039 0.224 0.051 0.338 0.037 0.249-0.027 0.498-0.188 0.729-0.393 0.497-0.456 1.038-0.931 1.591-1.393l0.073-0.060c0.583-0.486 1.276-1.035 1.98-1.568l0.146-0.106 0.57-0.424c0.092-0.073 0.189-0.138 0.292-0.195 0.098-0.052 0.213-0.085 0.335-0.092l0.002-0c0.23-0.014 0.456 0.060 0.632 0.207 0.084 0.072 0.153 0.158 0.208 0.255 0.047 0.096 0.081 0.198 0.101 0.302 0.188 0.812 0.318 1.55 0.415 2.17 0.070 0.4 0.157 1.043 0.229 1.69l0.017 0.189c0 0.044 0.008 0.083 0.010 0.106 0.002 0.012 0.002 0.023 0.002 0.035z"></path>
<path fill="#263238" style="fill: var(--color5, #263238)" d="M40.536 30.589c-0.027 0.008-0.054 0.013-0.082 0.013-0.054 0.006-0.132 0.013-0.229 0.019-0.193 0.013-0.459 0.028-0.753 0.040l-0.754 0.032-0.228 0.008c-0.013 0.002-0.027 0.002-0.042 0.002s-0.029-0.001-0.044-0.003l0.002 0c0.028-0.008 0.055-0.013 0.084-0.015 0.047-0.006 0.125-0.014 0.204-0.020l0.024-0.002c0.193-0.016 0.459-0.032 0.754-0.045l0.754-0.027 0.229-0.005c0.027-0.003 0.054-0.003 0.081 0.002zM38.413 26.533c-0.194 0.312-0.435 0.574-0.717 0.785l-0.007 0.005c-0.008-0.010 0.166-0.172 0.369-0.39 0.201-0.218 0.343-0.408 0.356-0.4z"></path>
<path fill="#263238" style="fill: var(--color5, #263238)" d="M38.492 26.785c-0.102 0.079-0.217 0.155-0.338 0.222l-0.014 0.007c-0.105 0.073-0.224 0.145-0.349 0.206l-0.016 0.007c0.099-0.094 0.211-0.177 0.333-0.245l0.008-0.004c0.109-0.076 0.233-0.142 0.366-0.191l0.011-0.004z"></path>
<path fill="#455a64" style="fill: var(--color11, #455a64)" d="M45.475 30.803c-0.017 0.002-0.033 0.002-0.050 0l-0.147-0.008-0.53-0.050-1.747-0.183c-0.684-0.071-1.3-0.151-1.748-0.173-0.099-0.006-0.214-0.009-0.331-0.009-0.070 0-0.141 0.001-0.21 0.004l0.010-0-0.144 0.006c-0.017 0.003-0.034 0.003-0.051 0 0.017-0.004 0.033-0.007 0.050-0.008 0.032-0.005 0.083-0.008 0.144-0.014 0.178-0.012 0.356-0.014 0.534-0.008 0.451 0.016 1.068 0.090 1.751 0.162l1.747 0.193 0.529 0.064 0.144 0.019c0.017 0.001 0.033 0.003 0.049 0.008z"></path>
<path fill="#455a64" style="fill: var(--color11, #455a64)" d="M45.37 31.729c-0.012 0 0.026-0.415 0.084-0.929 0.056-0.514 0.115-0.925 0.126-0.923s-0.025 0.414-0.082 0.928c-0.058 0.514-0.116 0.925-0.127 0.924z"></path>
</symbol>
<symbol id="icon-image_welcome" viewBox="0 0 34 32">
<path fill="#455a64" style="fill: var(--color11, #455a64)" d="M22.611 23.283c-0.101-0.113 0.138-0.77 1.275-0.817s1.592 0.368 1.593 0.817c0.001 0.199-2.868 0-2.868 0z"></path>
<path fill="#f5f5f5" style="fill: var(--color17, #f5f5f5)" d="M22.050 6.080l-1.263 7.809h11.53l1.389-7.892-11.657 0.084z"></path>
<path fill="#e0e0e0" style="fill: var(--color13, #e0e0e0)" d="M21.935 6.791c0.005-0.028 11.641-0.045 11.641-0.045l0.132-0.749-11.657 0.085-0.115 0.711z"></path>
<path fill="#263238" style="fill: var(--color5, #263238)" d="M22.538 6.431c0 0 0 0 0 0.001 0 0.060-0.048 0.108-0.108 0.108-0.030 0-0.056-0.012-0.076-0.031v0c-0.020-0.020-0.032-0.047-0.032-0.077 0-0.060 0.048-0.108 0.108-0.108s0.108 0.048 0.108 0.107v0zM23.062 6.431c0 0 0 0.001 0 0.001 0 0.059-0.048 0.106-0.106 0.106-0.030 0-0.057-0.012-0.076-0.032v0c-0.019-0.019-0.031-0.046-0.031-0.075 0-0.037 0.019-0.069 0.047-0.088l0-0c0.017-0.011 0.037-0.018 0.059-0.018 0.058 0 0.106 0.047 0.106 0.105v0zM23.588 6.431c0 0.001 0 0.001 0 0.002 0 0.059-0.048 0.107-0.107 0.107-0.030 0-0.056-0.012-0.076-0.032v0c-0.020-0.020-0.033-0.047-0.033-0.078 0-0.060 0.048-0.108 0.108-0.108 0.045 0 0.083 0.027 0.1 0.067l0 0.001c0.005 0.013 0.007 0.028 0.007 0.041z"></path>
<path fill="#ee4248" style="fill: var(--color8, #ee4248)" d="M24.89 10.298l-1.444 1.668c-0.537-0.368-0.887-0.974-0.897-1.662l-0-0.002c0-1.161 1.057-2.116 2.341-2.116s2.34 0.954 2.34 2.116l-2.34-0.004z"></path>
<path fill="#263238" style="fill: var(--color5, #263238)" d="M25.075 10.563c-0.007 0.012-0.015 0.022-0.025 0.033l-0.075 0.089-0.287 0.339c-0.249 0.292-0.603 0.703-1.027 1.198v-0.028c0.303 0.211 0.669 0.354 1.065 0.399l0.011 0.001c0.085 0.010 0.183 0.016 0.282 0.016 0.36 0 0.703-0.077 1.012-0.216l-0.016 0.006c0.391-0.172 0.714-0.436 0.952-0.766l0.005-0.007c0.103-0.147 0.192-0.317 0.256-0.497l0.005-0.015c0.056-0.17 0.089-0.345 0.101-0.523l0.019 0.019-2.114-0.038-0.123-0.004c-0.014 0.002-0.028 0.002-0.043 0 0.014-0.002 0.028-0.002 0.041 0h0.583l1.677 0.011v0.020c-0.010 0.195-0.046 0.378-0.104 0.55l0.004-0.015c-0.070 0.2-0.16 0.373-0.27 0.53l0.005-0.007c-0.248 0.345-0.579 0.616-0.964 0.785l-0.015 0.006c-0.297 0.133-0.644 0.211-1.010 0.211-0.102 0-0.203-0.006-0.302-0.018l0.012 0.001c-0.413-0.048-0.784-0.195-1.099-0.416l0.008 0.005-0.017-0.012 0.013-0.016 1.044-1.191 0.292-0.33 0.077-0.085c0.007-0.013 0.017-0.026 0.028-0.038zM25.885 9.172c0.072 0 0.131-0.059 0.131-0.131s-0.059-0.131-0.131-0.131v0c-0.072 0-0.131 0.059-0.131 0.131s0.059 0.131 0.131 0.131v0z"></path>
<path fill="#263238" style="fill: var(--color5, #263238)" d="M28.621 8.082c-0.033 0.005-0.071 0.008-0.11 0.008-0.005 0-0.010-0-0.014-0h0.001l-0.339 0.007c-0.283 0-0.677 0.006-1.107 0.006h-0.206l0.015-0.006c-0.272 0.271-0.514 0.508-0.689 0.677l-0.207 0.198c-0.024 0.026-0.051 0.048-0.080 0.068 0.020-0.028 0.043-0.054 0.068-0.079l0.198-0.207c0.169-0.176 0.408-0.417 0.677-0.69l0.006-0.006h0.223c0.432 0 0.824 0 1.107 0.006l0.339 0.007c0.039 0 0.080 0.003 0.119 0.010z"></path>
<path fill="#263238" style="fill: var(--color5, #263238)" d="M31.594 9.73c0-0.015 0.002-0.030 0.006-0.045l0.021-0.126 0.085-0.473 0.305-1.697 0.018 0.021-3.277 0.004 0.022-0.018v0.038l-0.007 0.039-0.015 0.079-0.029 0.156c-0.019 0.103-0.037 0.205-0.057 0.307l-0.111 0.599c-0.074 0.391-0.144 0.762-0.208 1.118l-0.021-0.024 2.361 0.010 0.685 0.006-0.67 0.005-2.393 0.009 0.004-0.024 0.316-1.718 0.057-0.308 0.029-0.156 0.015-0.078 0.007-0.039 0.004-0.020v-0.017l0.022-0.019 3.289 0.004-0.004 0.021-0.325 1.704-0.092 0.468-0.025 0.121c-0.003 0.021-0.006 0.038-0.011 0.055l0.001-0.004zM26.091 11.811c0.072 0 0.131-0.059 0.131-0.131s-0.059-0.131-0.131-0.131v0c-0.072 0-0.131 0.059-0.131 0.131s0.059 0.131 0.131 0.131v0z"></path>
<path fill="#263238" style="fill: var(--color5, #263238)" d="M28.472 11.68c0 0.013-0.533 0.022-1.191 0.022s-1.191-0.010-1.191-0.022 0.534-0.022 1.191-0.022c0.658 0 1.191 0.010 1.191 0.022z"></path>
<path fill="#263238" style="fill: var(--color5, #263238)" d="M31.594 12.702c0.013-0.068 0.022-0.11 0.032-0.151l-0.006 0.028c0.019-0.084 0.048-0.197 0.085-0.344l0.308-1.252 0.016 0.020-3.379 0.005 0.021-0.016v0.026l-0.007 0.030-0.015 0.055-0.028 0.114-0.057 0.223-0.121 0.443-0.211 0.83-0.019-0.025 3.134 0.014-0.697 0.005-2.463 0.009 0.007-0.026 0.208-0.83c0.036-0.144 0.073-0.29 0.111-0.438l0.084-0.336 0.015-0.057 0.007-0.028v-0.028l0.021-0.016 3.41 0.006-0.004 0.020-0.326 1.258-0.091 0.338-0.023 0.085-0.011 0.039zM31.326 8.112c0 0.013-0.502 0.022-1.121 0.022s-1.122-0.010-1.122-0.022c0-0.013 0.502-0.022 1.122-0.022s1.121 0.010 1.121 0.022zM31.3 8.479c0 0.013-0.508 0.022-1.127 0.022s-1.128-0.010-1.128-0.022 0.508-0.022 1.128-0.022c0.62 0 1.127 0.010 1.127 0.022zM31.236 8.836c0 0.012-0.487 0.022-1.089 0.022s-1.089-0.010-1.089-0.022 0.487-0.022 1.089-0.022c0.602 0 1.089 0.007 1.089 0.022z"></path>
<path fill="#263238" style="fill: var(--color5, #263238)" d="M31.274 11.639c0 0.012-0.478 0.022-1.069 0.022s-1.069-0.010-1.069-0.022c0-0.012 0.479-0.022 1.069-0.022s1.069 0.011 1.069 0.022zM31.143 12.045c0 0.013-0.408 0.022-0.912 0.022s-0.912-0.010-0.912-0.022 0.409-0.022 0.912-0.022c0.504 0 0.912 0.010 0.912 0.022z"></path>
<path fill="#455a64" style="fill: var(--color11, #455a64)" d="M17.523 20.547c-0.040 0.238-1.169 2.736-0.441 2.736h3.662s-0.378-0.356 0.767-2.736h-3.988z"></path>
<path fill="#455a64" style="fill: var(--color11, #455a64)" d="M15.154 12.21l-1.497 8.748h12.626l1.549-9.055-12.678 0.307z"></path>
<path fill="#fafafa" style="fill: var(--color14, #fafafa)" d="M15.583 12.636l-1.262 7.809h11.53l1.39-7.892-11.658 0.083z"></path>
<path fill="#263238" style="fill: var(--color5, #263238)" d="M27.833 11.902l0.238 0.161-1.607 9.133h-12.473l-0.333-0.238h12.626l1.549-9.055z"></path>
<path fill="#ebebeb" style="fill: var(--color18, #ebebeb)" d="M15.469 13.347c0.004-0.028 11.64-0.045 11.64-0.045l0.132-0.749-11.658 0.085-0.115 0.711z"></path>
<path fill="#263238" style="fill: var(--color5, #263238)" d="M24.034 19.752v-0.022l0.010-0.066 0.043-0.253 0.164-0.96 0.572-3.26v-0.019h0.953l-0.004 0.026-0.841 4.557v0.010h-0.009l-0.653-0.007 0.656-0.006-0.011 0.009 0.819-4.56 0.022 0.025h-0.908l0.022-0.017c-0.235 1.288-0.441 2.423-0.593 3.24l-0.178 0.962-0.048 0.26-0.014 0.067c0 0.004-0.002 0.008-0.002 0.013zM22.572 19.752c0.002-0.021 0.004-0.042 0.010-0.061l0.032-0.182c0.030-0.164 0.073-0.394 0.127-0.677 0.11-0.586 0.265-1.402 0.442-2.334v-0.017h0.953l-0.004 0.026c-0.268 1.326-0.508 2.505-0.657 3.252v0.010h-0.011l-0.662-0.007h-0.169c-0.019 0.002-0.038 0.002-0.057 0h0.239l0.653-0.007-0.013 0.011c-7.701 45.776-7.479 44.676-7.257 43.576l7.897-46.832 0.021 0.027h-0.912l0.021-0.017-0.46 2.314c-0.059 0.289-0.105 0.521-0.139 0.684l-0.037 0.185c0 0.019-0.009 0.035-0.012 0.048l-0.002 0.002zM21.104 19.752c-0-0.004-0.001-0.009-0.001-0.014s0-0.010 0.001-0.014l-0 0.001 0.013-0.084 0.054-0.319c0.049-0.28 0.119-0.684 0.208-1.185 0.179-1.016 0.429-2.421 0.711-4.014v-0.018h0.953l-0.004 0.025c-0.442 2.419-0.832 4.527-1.038 5.622v0.009h-0.010l-0.657-0.007 0.658-0.006-0.010 0.008c1.28-8.048 1.634-9.955 1.994-11.86l-0.979 6.236 0.022 0.026h-0.905l0.021-0.019c-0.288 1.585-0.543 2.986-0.729 3.994-0.093 0.503-0.169 0.908-0.22 1.189l-0.061 0.322-0.016 0.085-0.007 0.022zM19.638 19.752c0-0.015 0.002-0.028 0.005-0.042l0.021-0.127c0.019-0.118 0.048-0.28 0.085-0.482l0.293-1.672v-0.018h0.953l-0.005 0.027-0.444 2.317v0.013h-0.012l-0.66-0.008-0.179-0.007c-0.009 0.001-0.019 0.001-0.029 0.001s-0.020-0-0.030-0.001l0.001 0h0.243l0.65-0.009-0.015 0.012 0.43-2.32 0.022 0.026h-0.906l0.020-0.016c-0.125 0.664-0.232 1.238-0.311 1.652l-0.094 0.485-0.026 0.13c-0.003 0.016-0.007 0.030-0.012 0.043l0.001-0.002zM18.172 19.752v-0.018c0-0.012 0-0.034 0.007-0.055l0.034-0.214 0.13-0.802 0.456-2.737v-0.018h0.953l-0.005 0.026c-0.279 1.577-0.525 2.97-0.677 3.82v0.011h-0.010l-0.654-0.007 0.655-0.007-0.013 0.010 0.659-3.823 0.022 0.026h-0.903l0.021-0.018-0.473 2.717-0.144 0.806c-0.016 0.092-0.030 0.169-0.039 0.217l-0.011 0.057-0.006 0.007zM16.708 19.752c-0.001-0.004-0.001-0.008-0.001-0.012s0-0.009 0.001-0.013l-0 0c0-0.019 0.007-0.043 0.012-0.074 0.012-0.069 0.028-0.17 0.049-0.292l0.185-1.084 0.639-3.676v-0.018h0.953l-0.004 0.026c-0.394 2.194-0.743 4.112-0.935 5.145v0.010h-0.009l-0.656-0.007 0.657-0.007-0.011 0.010c1.169-7.48 1.488-9.225 1.812-10.969l-0.898 5.822 0.022 0.025h-0.907l0.021-0.018-0.655 3.655-0.199 1.088c-0.022 0.127-0.042 0.225-0.054 0.295l-0.015 0.077c-0.004 0.019-0.006 0.017-0.006 0.017zM16.071 12.988c0 0 0 0 0 0.001 0 0.059-0.048 0.108-0.108 0.108s-0.107-0.048-0.108-0.107v-0c0-0 0-0 0-0.001 0-0.059 0.048-0.108 0.108-0.108s0.107 0.048 0.108 0.107v0zM16.488 13.095c0.059 0 0.107-0.048 0.107-0.107s-0.048-0.107-0.107-0.107v0c-0.059 0-0.107 0.048-0.107 0.107s0.048 0.107 0.107 0.107v0zM17.121 12.988c0 0 0 0 0 0.001 0 0.060-0.048 0.108-0.108 0.108s-0.108-0.048-0.108-0.107v-0c0-0 0-0 0-0.001 0-0.060 0.048-0.108 0.108-0.108s0.108 0.048 0.108 0.107v0zM15.242 19.752s0-0.022 0.010-0.066c0.010-0.043 0.018-0.111 0.031-0.192 0.030-0.169 0.071-0.417 0.123-0.721l0.43-2.469v-0.018h0.953l-0.005 0.026-0.639 3.443v0.011h-0.010l-0.65-0.007 0.653-0.007-0.013 0.010 0.622-3.445 0.022 0.025h-0.911l0.021-0.018c-0.179 0.978-0.338 1.834-0.447 2.449l-0.136 0.724c-0.015 0.085-0.028 0.149-0.037 0.196l-0.010 0.052-0.004 0.006z"></path>
<path fill="#ee4248" style="fill: var(--color8, #ee4248)" d="M25.133 16.309h-4.83l0.275-1.622h4.864l-0.31 1.622z"></path>
<path fill="#ee4248" style="fill: var(--color8, #ee4248)" d="M20.303 16.309l-0.094 0.566s0.635-0.588 0.625-0.588h-0.527z"></path>
<path fill="#fafafa" style="fill: var(--color14, #fafafa)" d="M24.714 15.251c0 0.012-0.804 0.022-1.796 0.022s-1.797-0.010-1.797-0.022 0.804-0.022 1.797-0.022c0.993 0 1.796 0.010 1.796 0.022zM24.667 15.643c0 0.012-0.804 0.022-1.796 0.022s-1.798-0.010-1.798-0.022c0-0.012 0.805-0.022 1.797-0.022s1.796 0.010 1.796 0.022z"></path>
<path fill="#263238" style="fill: var(--color5, #263238)" d="M32.568 23.844h-13.762v8.030h13.761v-8.030z"></path>
<path fill="#455a64" style="fill: var(--color11, #455a64)" d="M25.075 23.844h-6.27v8.030h6.269v-8.030z"></path>
<path fill="#263238" style="fill: var(--color5, #263238)" d="M24.434 26.57v-0.157c0-0.104 0-0.254-0.004-0.447 0-0.386-0.004-0.941-0.008-1.627l0.016 0.016-5.043 0.005c-0.019 0.021 0.026-0.026 0.022-0.021v2.23l-0.021-0.020 4.673 0.016-1.044 0.005-3.649 0.010v-2.241c-0.005 0 0.042-0.042 0.022-0.022l5.052 0.003v0.015c0 0.69-0.007 1.249-0.008 1.637 0 0.191 0 0.339-0.004 0.442v0.115c0 0.013-0.001 0.027-0.003 0.040z"></path>
<path fill="#263238" style="fill: var(--color5, #263238)" d="M22.129 25.456s-0.004-0.019-0.015-0.050c-0.015-0.044-0.042-0.081-0.078-0.107l-0.001-0c-0.032-0.024-0.073-0.038-0.116-0.038-0.067 0-0.126 0.033-0.162 0.084l-0 0.001c-0.023 0.031-0.036 0.070-0.036 0.113 0 0.107 0.087 0.194 0.194 0.194 0.011 0 0.021-0.001 0.032-0.003l-0.001 0c0.032-0.004 0.063-0.016 0.090-0.036 0.037-0.026 0.065-0.064 0.079-0.107 0.010-0.031 0.011-0.051 0.015-0.051s0.007 0.019 0 0.055c-0.010 0.050-0.037 0.095-0.077 0.127s-0.090 0.052-0.145 0.052c-0.078 0-0.146-0.039-0.187-0.098l-0-0.001c-0.026-0.037-0.042-0.084-0.042-0.134 0-0.129 0.105-0.234 0.234-0.234 0.013 0 0.025 0.001 0.037 0.003l-0.001-0c0.092 0.015 0.164 0.085 0.181 0.174l0 0.001c0.007 0.035 0.003 0.054 0 0.054zM24.434 29.026v-0.158c0-0.104 0-0.255-0.004-0.446 0-0.387-0.004-0.941-0.008-1.627l0.016 0.016-5.043 0.006 0.022-0.022v2.23l-0.021-0.021 4.673 0.016-1.044 0.006-3.649 0.010v-2.238l0.022-0.022 5.058 0.006v0.016c0 0.69-0.007 1.248-0.008 1.637 0 0.19 0 0.338-0.004 0.442v0.113c-0.003 0.015-0.006 0.027-0.009 0.039l0.001-0.002z"></path>
<path fill="#263238" style="fill: var(--color5, #263238)" d="M22.129 27.911s-0.004-0.020-0.015-0.051c-0.015-0.044-0.042-0.081-0.078-0.107l-0.001-0c-0.033-0.023-0.073-0.037-0.117-0.037-0.025 0-0.049 0.005-0.071 0.013l0.001-0c-0.075 0.028-0.127 0.099-0.127 0.182s0.052 0.154 0.126 0.182l0.001 0c0.021 0.008 0.046 0.013 0.071 0.013 0.043 0 0.084-0.014 0.116-0.037l-0.001 0c0.037-0.027 0.065-0.065 0.079-0.108 0.010-0.032 0.011-0.051 0.015-0.051s0.007 0.020 0 0.054c-0.010 0.052-0.038 0.097-0.076 0.128l-0 0c-0.039 0.032-0.088 0.051-0.143 0.051-0.027 0-0.054-0.005-0.078-0.014l0.002 0c-0.089-0.034-0.152-0.119-0.152-0.219 0-0.129 0.105-0.234 0.234-0.234 0.012 0 0.023 0.001 0.034 0.002l-0.001-0c0.039 0.007 0.074 0.022 0.104 0.048 0.041 0.032 0.068 0.078 0.077 0.129 0.007 0.034 0.003 0.054 0 0.054zM24.434 31.481v-0.157c0-0.104 0-0.255-0.004-0.447 0-0.386-0.004-0.941-0.008-1.627l0.016 0.016-5.043 0.006c-0.019 0.020 0.026-0.026 0.022-0.021v2.23l-0.021-0.020 4.673 0.015-1.044 0.005-3.649 0.010v-2.24c-0.005 0.004 0.042-0.042 0.022-0.023l5.058 0.007v0.015c0 0.689-0.007 1.249-0.008 1.637 0 0.191 0 0.339-0.004 0.441v0.115c-0.002 0.013-0.005 0.025-0.009 0.037z"></path>
<path fill="#263238" style="fill: var(--color5, #263238)" d="M22.129 30.366s-0.004-0.019-0.015-0.050c-0.015-0.044-0.042-0.081-0.078-0.107l-0.001-0c-0.032-0.023-0.072-0.037-0.116-0.037-0.067 0-0.126 0.033-0.163 0.083l-0 0.001c-0.022 0.031-0.035 0.069-0.035 0.111 0 0.083 0.052 0.154 0.126 0.182l0.001 0c0.021 0.008 0.045 0.013 0.070 0.013 0.044 0 0.084-0.014 0.117-0.038l-0.001 0c0.037-0.027 0.065-0.064 0.079-0.107 0.010-0.032 0.011-0.051 0.015-0.051s0.007 0.019 0 0.055c-0.018 0.091-0.090 0.16-0.18 0.175l-0.001 0c-0.012 0.002-0.025 0.003-0.039 0.003-0.078 0-0.146-0.039-0.188-0.098l-0-0.001c-0.026-0.037-0.042-0.084-0.042-0.134 0-0.129 0.105-0.234 0.234-0.234 0.013 0 0.025 0.001 0.037 0.003l-0.001-0c0.092 0.015 0.164 0.085 0.181 0.174l0 0.001c0.007 0.035 0.003 0.054 0 0.054zM12.019 23.844h-11.575v8.030h11.575v-8.030z"></path>
<path fill="#263238" style="fill: var(--color5, #263238)" d="M33.066 23.283h-33.066v0.763h33.066v-0.763z"></path>
<path fill="#455a64" style="fill: var(--color11, #455a64)" d="M1.47 24.046h-1.026v7.827h1.026v-7.827z"></path>
<path fill="#263238" style="fill: var(--color5, #263238)" d="M13.3 11.205c-0.007-0.032-0.012-0.065-0.015-0.097-0.013-0.093-0.043-0.176-0.086-0.251l0.002 0.003c-0.029-0.051-0.071-0.092-0.122-0.118l-0.002-0.001c-0.019-0.008-0.041-0.013-0.063-0.013-0.044 0-0.084 0.018-0.114 0.046l0-0c-0.094 0.116-0.151 0.266-0.151 0.429s0.057 0.313 0.152 0.431l-0.001-0.001c0.029 0.029 0.070 0.047 0.114 0.047 0.023 0 0.044-0.005 0.064-0.013l-0.001 0c0.052-0.027 0.095-0.068 0.124-0.119 0.042-0.071 0.071-0.155 0.084-0.243l0-0.004c0.002-0.033 0.007-0.065 0.014-0.097 0.005 0.033 0.005 0.066 0 0.099-0.006 0.096-0.033 0.185-0.076 0.264l0.002-0.003c-0.031 0.058-0.077 0.105-0.134 0.135l-0.002 0.001c-0.035 0.016-0.073 0.022-0.112 0.016-0.041-0.009-0.077-0.027-0.106-0.052l0 0c-0.105-0.123-0.169-0.284-0.169-0.46s0.064-0.337 0.17-0.461l-0.001 0.001c0.035-0.034 0.082-0.055 0.135-0.055 0.030 0 0.058 0.007 0.084 0.019l-0.001-0.001c0.058 0.031 0.105 0.078 0.135 0.134l0.001 0.002c0.043 0.082 0.068 0.17 0.074 0.262 0.005 0.033 0.005 0.066 0 0.099z"></path>
<path fill="#ffbe9d" style="fill: var(--color19, #ffbe9d)" d="M9.647 9.551l-0.254 5.070 2.178 0.205 0.12-1.231s0.762 0.19 0.999-0.519c0.148-0.452 0.28-3.998 0.28-3.998l-3.323 0.473z"></path>
<path fill="#263238" style="fill: var(--color5, #263238)" d="M13.433 9.601c-0.185 0.441-0.884 0.819-0.884 0.819l-0.114 1.124c-0.104-0.007-0.208-0.007-0.313 0 0.056-0.528-0.622-0.423-0.691-0.066-0.066 0.345 0.327 0.577 0.327 0.577-0.272 0.416-0.382 0.636-0.767 1.026-0.417 0.423-0.641 0.457-1.072 0.444l-0.475-0.022s-0.169-0.405-0.292-1.362c-0.060-0.461-0.423-1.064-0.318-1.813 0.292-2.127 2.645-1.749 2.645-1.749 0.883-0.688 2.39-0.015 1.953 1.022z"></path>
<path fill="#263238" style="fill: var(--color5, #263238)" d="M13.3 11.211c-0.161 0.030-0.324 0.047-0.487 0.047-0.163 0.015-0.327 0.015-0.489 0 0.146-0.029 0.314-0.046 0.486-0.046h0c0.164-0.015 0.327-0.015 0.49-0.001z"></path>
<path fill="#ffbe9d" style="fill: var(--color19, #ffbe9d)" d="M20.239 17.168l-0.791 0.49-0.29 0.677v-0.592s0.215-0.254 0.391-0.439c0.176-0.186 0.050-0.314 0-0.377s-0.807 0.816-0.807 0.816v0.508c-0.353-0.434-0.516-0.285-0.57-0.206s0.57 0.668 0.57 0.668v0.179l-3.103 1.668-0.816-2.031-1.667 0.876 0.996 2.411c0.194 0.461 0.641 0.778 1.163 0.778 0.236 0 0.457-0.065 0.646-0.178l-0.006 0.003 3.651-2.158 0.243-0.406c0.084-0.14 0.134-0.298 0.144-0.46l0.127-1.823c0.221-0.139 0.121-0.403 0.121-0.403z"></path>
<path fill="#eb996e" style="fill: var(--color20, #eb996e)" d="M15.653 20.562c-0.083 0.317-0.188 0.592-0.318 0.853l0.011-0.025c0.074-0.285 0.178-0.563 0.307-0.828zM20.118 17.57c-0.046 0.025-0.095 0.045-0.144 0.065-0.113 0.054-0.198 0.15-0.237 0.267l-0.001 0.003c-0.072 0.192-0.149 0.355-0.239 0.51l0.009-0.016c0.057-0.198 0.122-0.367 0.199-0.528l-0.009 0.021c0.025-0.069 0.064-0.132 0.115-0.185 0.042-0.040 0.092-0.072 0.146-0.096l0.003-0.001c0.046-0.024 0.1-0.038 0.157-0.039h0zM20.106 17.859c-0.029 0.004-0.053 0.020-0.067 0.044l-0 0c-0.025 0.048-0.056 0.122-0.085 0.201-0.038 0.121-0.076 0.22-0.119 0.315l0.007-0.018c0-0.108 0.024-0.215 0.070-0.313 0.028-0.071 0.063-0.139 0.104-0.203 0.015-0.021 0.039-0.035 0.066-0.037l0-0c0.016 0 0.024 0.008 0.022 0.011z"></path>
<path fill="#ee4248" style="fill: var(--color8, #ee4248)" d="M12.655 19.096l0.355 1.2 2.25-1.016c-0.084-0.253-0.454-1.372-1.165-3.148-0.399-0.981-1.265-1.697-2.315-1.879l-0.018-0.003c-0.737-0.123-1.538-0.218-2.155-0.211-1.278 0.012-2.34 0.919-2.593 2.124l-0.003 0.017c-0.191 0.944 0.143 1.567-0.072 3.632l-0.068 5.194 6.009 0.221-0.223-6.132z"></path>
<path fill="#ee4248" style="fill: var(--color8, #ee4248)" d="M7.219 19.758s-0.836 0.050-1.164-0.583c0 0 0.9-3.326 1.213-3.717l-0.049 4.3z"></path>
<path fill="#263238" style="fill: var(--color5, #263238)" d="M14.208 16.467c-0.022 0.017-0.045 0.030-0.071 0.039-0.068 0.025-0.146 0.041-0.228 0.043l-0.001 0c-0.123-0.001-0.246-0.016-0.365-0.047-0.138-0.031-0.293-0.077-0.467-0.106-0.074-0.010-0.16-0.015-0.247-0.015-0.009 0-0.018 0-0.028 0h0.001c-0.098 0.008-0.196 0.025-0.292 0.048-0.212 0.058-0.417 0.144-0.607 0.254-0.206 0.112-0.415 0.244-0.637 0.374-0.21 0.132-0.451 0.247-0.706 0.332l-0.024 0.007c-0.127 0.041-0.274 0.064-0.426 0.064-0.136 0-0.268-0.019-0.393-0.054l0.010 0.002c-0.254-0.083-0.473-0.205-0.665-0.361l0.004 0.003c-0.188-0.147-0.353-0.301-0.508-0.441-0.135-0.126-0.281-0.246-0.435-0.356l-0.013-0.009c-0.213-0.161-0.471-0.275-0.752-0.322l-0.010-0.001c-0.046-0.003-0.099-0.004-0.153-0.004s-0.107 0.002-0.16 0.005l0.007-0c0.025-0.010 0.051-0.017 0.077-0.020 0.077-0.013 0.155-0.016 0.232-0.011 0.285 0.033 0.557 0.138 0.79 0.306 0.173 0.117 0.323 0.237 0.465 0.366l-0.003-0.003c0.158 0.139 0.324 0.29 0.508 0.43 0.181 0.144 0.392 0.26 0.621 0.335l0.014 0.004c0.25 0.067 0.514 0.063 0.761-0.015 0.271-0.090 0.506-0.201 0.724-0.336l-0.014 0.008c0.221-0.127 0.432-0.26 0.642-0.371 0.197-0.112 0.409-0.197 0.629-0.253 0.1-0.025 0.203-0.040 0.307-0.046 0.095 0.001 0.191 0.007 0.285 0.022 0.179 0.034 0.333 0.084 0.469 0.119 0.115 0.034 0.233 0.054 0.353 0.060 0.103 0 0.205-0.017 0.302-0.049zM12.695 20.611c-0.107-0.065-0.233-0.113-0.367-0.135l-0.006-0.001c-0.044-0.005-0.095-0.009-0.146-0.009-0.1 0-0.198 0.012-0.292 0.034l0.009-0.002c-0.161 0.032-0.335 0.090-0.525 0.138-0.158 0.042-0.339 0.067-0.526 0.067-0.167 0-0.329-0.019-0.485-0.056l0.014 0.003c-0.255-0.060-0.391-0.139-0.387-0.148s0.152 0.045 0.399 0.085c0.32 0.054 0.649 0.042 0.964-0.038 0.186-0.047 0.362-0.103 0.531-0.133 0.15-0.030 0.305-0.032 0.455-0.005 0.102 0.019 0.199 0.058 0.284 0.117 0.060 0.047 0.083 0.080 0.079 0.083zM12.755 23.711s-0.022 0.038-0.079 0.092c-0.082 0.074-0.173 0.138-0.272 0.188-0.149 0.077-0.313 0.119-0.48 0.122-0.215-0.006-0.418-0.054-0.603-0.136l0.010 0.004c-0.197-0.077-0.377-0.164-0.548-0.212-0.113-0.036-0.244-0.056-0.379-0.056-0.030 0-0.060 0.001-0.089 0.003l0.004-0c-0.104 0.006-0.207 0.035-0.3 0.084-0.066 0.037-0.097 0.067-0.102 0.060s0.020-0.042 0.085-0.084c0.087-0.064 0.193-0.107 0.308-0.122l0.003-0c0.165-0.019 0.333-0.007 0.493 0.037 0.228 0.071 0.412 0.142 0.592 0.222l-0.034-0.014c0.164 0.074 0.354 0.122 0.554 0.134l0.004 0c0.156 0 0.31-0.033 0.452-0.098 0.249-0.112 0.372-0.237 0.381-0.223z"></path>
<path fill="#000" style="fill: var(--color4, #000)" opacity="0.3" d="M6.24 19.818c0.787 0.16 1.595 0 2.396-0.050 0.487-0.028 1.026-0.084 1.41 0.217 0.304 0.237 0.423 0.636 0.515 1.012 0.339 1.433 0.397 2.713 0.473 4.183l-3.893-0.085-0.901-5.279zM7.268 17.119l0.168 2.427h-0.513l0.345-2.427z"></path>
<path fill="#263238" style="fill: var(--color5, #263238)" d="M8.362 25.003l7.726 0.274c1.236 0.045 2.222 1.058 2.222 2.302 0 0.013-0 0.026-0 0.039l0-0.002-0.067 4.384h-2.833l-0.183-3.78-6.864-0.181v-3.036z"></path>
<path fill="#455a64" style="fill: var(--color11, #455a64)" d="M10.953 29.012h-0.761v2.782h0.761v-2.782zM3.816 20.175v6.702c0 0.879 0.713 1.591 1.592 1.591 0 0 0.001 0 0.001 0h4.462v-8.293c-0-0.392-0.318-0.709-0.71-0.709 0 0 0 0 0 0h-4.636c-0.392 0-0.709 0.318-0.709 0.709v0z"></path>
<path fill="#455a64" style="fill: var(--color11, #455a64)" d="M15.877 29.012h-10.868c0.003-0.652 0.532-1.179 1.184-1.18h8.509c0.651 0 1.179 0.528 1.18 1.18v0h-0.004z"></path>
<path fill="#263238" style="fill: var(--color5, #263238)" d="M9.871 27.676c0.005 0.066 0 0.132-0.016 0.196-0.076 0.308-0.322 0.542-0.631 0.601l-0.005 0.001c-0.069 0.011-0.139 0.016-0.209 0.014h-2.973l-0.537-0.007h-0.147c-0.017 0.002-0.034 0-0.051-0.004 0.017-0.002 0.034-0.004 0.051-0.004l0.147-0.004 0.537-0.007 1.777-0.009h1.196c0.068 0.003 0.135-0.002 0.203-0.012 0.301-0.057 0.539-0.277 0.62-0.564l0.001-0.006c0.035-0.124 0.030-0.196 0.037-0.195zM11.239 29.035c-0.221 0.022-0.444 0.030-0.666 0.022-0.223 0.007-0.445 0-0.667-0.022 0.222-0.022 0.444-0.030 0.667-0.022 0.223-0.007 0.444 0 0.666 0.022z"></path>
<path fill="#455a64" style="fill: var(--color11, #455a64)" d="M14.546 28.527c-0.010-0.024-0.017-0.053-0.021-0.083l-0-0.001c-0.029-0.116-0.092-0.495-0.151-0.876l-0.030-0.239c-0.030-0.185-0.055-0.39-0.095-0.604l-0.033-0.164c-0.011-0.055-0.032-0.108-0.048-0.164l-0.024-0.085c-0.009-0.028-0.022-0.055-0.033-0.084-0.022-0.056-0.043-0.112-0.067-0.17-0.116-0.247-0.251-0.46-0.409-0.653l0.004 0.005c-0.176-0.21-0.376-0.391-0.599-0.542l-0.010-0.006c-0.212-0.147-0.457-0.268-0.718-0.35l-0.019-0.005c-0.223-0.074-0.481-0.12-0.748-0.129l-0.004-0c-0.493-0.011-0.941-0.008-1.315-0.013s-0.684-0.010-0.995-0.017l0.108 0.002c-0.104 0-0.186-0.004-0.242-0.007-0.002 0-0.005 0-0.008 0-0.027 0-0.053-0.003-0.079-0.009l0.002 0c0.028-0.007 0.057-0.010 0.085-0.010l0.242-0.008c0.208-0.005 0.514-0.010 0.887-0.013s0.82-0.012 1.317-0.005c0.263 0.005 0.525 0.048 0.776 0.128 0.272 0.081 0.528 0.204 0.761 0.365 0.24 0.162 0.446 0.349 0.623 0.561l0.004 0.005c0.157 0.194 0.295 0.414 0.404 0.65l0.008 0.019c0.025 0.057 0.045 0.117 0.067 0.173l0.033 0.085c0.011 0.028 0.016 0.057 0.025 0.084l0.046 0.17c0.015 0.056 0.022 0.112 0.031 0.169 0.039 0.22 0.059 0.423 0.085 0.608 0.048 0.371 0.085 0.673 0.111 0.88l0.026 0.24c0.006 0.030 0.007 0.062 0.003 0.092z"></path>
<path fill="#ee4248" style="fill: var(--color8, #ee4248)" d="M0.83 20.417s-0.137 0.383 0.126 0.661h0.546s-0.048-0.619-0.671-0.661z"></path>
<path fill="#000" style="fill: var(--color4, #000)" opacity="0.4" d="M0.83 20.417s-0.137 0.383 0.126 0.661h0.546s-0.048-0.619-0.671-0.661z"></path>
<path fill="#ee4248" style="fill: var(--color8, #ee4248)" d="M1.76 19.627c-0.022-0.027-0.49 0.704-0.228 1.451h0.515s0.201-0.868-0.287-1.451z"></path>
<path fill="#ee4248" style="fill: var(--color8, #ee4248)" d="M2.672 20.417c-0.348 0.024-0.621 0.31-0.625 0.66v0h0.514s0.225-0.316 0.112-0.661z"></path>
<path fill="#455a64" style="fill: var(--color11, #455a64)" d="M0.913 21.049c-0.292 0.212-0.48 0.552-0.48 0.937 0 0.073 0.007 0.145 0.020 0.214l-0.001-0.007c0.131 0.761 0.935 1.090 0.935 1.090h0.89s0.907-0.4 0.886-1.223c-0.022-0.824-0.563-0.999-0.563-0.999l-1.688-0.012z"></path>
<path fill="#263238" style="fill: var(--color5, #263238)" d="M3.16 21.968c-0.020-0.034-0.045-0.066-0.074-0.092-0.068-0.055-0.155-0.088-0.25-0.088-0.017 0-0.034 0.001-0.050 0.003l0.002-0c-0.156 0.030-0.306 0.095-0.435 0.19-0.082 0.052-0.169 0.097-0.26 0.132-0.1 0.038-0.208 0.049-0.314 0.031-0.217-0.037-0.391-0.154-0.553-0.231-0.138-0.081-0.298-0.119-0.457-0.11-0.111 0.012-0.208 0.064-0.277 0.141l-0 0c-0.025 0.031-0.045 0.066-0.061 0.101 0.007-0.044 0.024-0.083 0.048-0.117l-0.001 0.001c0.069-0.087 0.17-0.146 0.284-0.16l0.002-0c0.021-0.002 0.046-0.003 0.071-0.003 0.152 0 0.294 0.041 0.415 0.113l-0.004-0.002c0.169 0.077 0.339 0.191 0.542 0.224 0.098 0.017 0.199 0.007 0.292-0.028 0.098-0.038 0.182-0.081 0.261-0.131l-0.006 0.004c0.128-0.092 0.281-0.158 0.447-0.185l0.006-0.001c0.012-0.001 0.025-0.002 0.039-0.002 0.106 0 0.202 0.040 0.274 0.106l-0-0c0.022 0.021 0.039 0.046 0.052 0.074 0.004 0.019 0.007 0.030 0.005 0.030z"></path>
<path fill="#263238" style="fill: var(--color5, #263238)" d="M3.172 22.166c-0.020-0.034-0.045-0.064-0.073-0.092-0.067-0.055-0.153-0.088-0.246-0.088-0.017 0-0.034 0.001-0.050 0.003l0.002-0c-0.156 0.030-0.303 0.095-0.43 0.189-0.073 0.049-0.156 0.094-0.244 0.13l-0.010 0.004c-0.063 0.025-0.136 0.040-0.213 0.040-0.035 0-0.069-0.003-0.102-0.009l0.004 0c-0.216-0.037-0.387-0.154-0.548-0.232-0.116-0.070-0.257-0.111-0.407-0.111-0.016 0-0.031 0-0.046 0.001l0.002-0c-0.11 0.012-0.206 0.065-0.275 0.142l-0 0c-0.023 0.031-0.043 0.065-0.059 0.101 0 0 0-0.011 0.005-0.032 0.009-0.028 0.022-0.056 0.040-0.080 0.068-0.086 0.168-0.146 0.281-0.161l0.002-0c0.165-0.015 0.331 0.022 0.475 0.104 0.164 0.078 0.339 0.191 0.537 0.224 0.097 0.017 0.197 0.007 0.29-0.028 0.086-0.034 0.17-0.077 0.249-0.128 0.126-0.092 0.278-0.157 0.443-0.184l0.006-0.001c0.011-0.001 0.023-0.002 0.036-0.002 0.104 0 0.199 0.040 0.27 0.105l-0-0c0.028 0.028 0.050 0.063 0.063 0.102l0.001 0.002z"></path>
<path fill="#263238" style="fill: var(--color5, #263238)" d="M0.86 22.161c0-0.005 0.024-0.020 0.055 0.005 0.013 0.011 0.021 0.028 0.021 0.047 0 0.007-0.001 0.014-0.004 0.021l0-0c-0.011 0.026-0.036 0.043-0.066 0.043-0.039 0-0.071-0.032-0.071-0.071 0-0.005 0.001-0.010 0.002-0.015l-0 0c0.004-0.012 0.010-0.022 0.019-0.030 0.030-0.025 0.057-0.013 0.055-0.009s-0.019 0.010-0.031 0.030c-0.003 0.005-0.004 0.010-0.004 0.016s0.001 0.012 0.004 0.017l-0-0c0.005 0.012 0.016 0.021 0.029 0.023l0 0c0.018-0.001 0.033-0.016 0.034-0.034v-0c0-0 0-0 0-0 0-0.005-0.001-0.010-0.004-0.015l0 0c-0.019-0.020-0.039-0.021-0.039-0.027zM1.869 21.84c0-0.005 0.024-0.022 0.056 0.005 0.013 0.012 0.020 0.028 0.020 0.047 0 0.007-0.001 0.014-0.004 0.021l0-0c-0.011 0.028-0.037 0.048-0.068 0.048-0.001 0-0.002-0-0.003-0h0c-0.031-0.003-0.057-0.026-0.065-0.055l-0-0.001c-0.001-0.005-0.002-0.011-0.002-0.016 0-0.019 0.009-0.037 0.022-0.048l0-0c0.030-0.025 0.057-0.014 0.054-0.009s-0.019 0.010-0.031 0.030c-0.002 0.005-0.004 0.010-0.004 0.016s0.001 0.012 0.004 0.017l-0-0c0.005 0.012 0.015 0.021 0.028 0.023l0 0c0.013-0.001 0.024-0.008 0.030-0.018l0-0c0.003-0.005 0.005-0.010 0.005-0.016s-0.002-0.011-0.004-0.015l0 0c-0.019-0.019-0.038-0.020-0.039-0.026zM2.848 22.175c0-0.005 0.024-0.020 0.057 0.005 0.012 0.012 0.020 0.028 0.020 0.046 0 0.008-0.001 0.015-0.004 0.022l0-0c-0.011 0.028-0.037 0.048-0.068 0.048-0.001 0-0.002 0-0.002-0h0c-0.032-0.003-0.057-0.025-0.065-0.055l-0-0.001c-0.001-0.005-0.002-0.011-0.002-0.017 0-0.020 0.009-0.037 0.022-0.049l0-0c0.030-0.025 0.057-0.013 0.054-0.008s-0.019 0.010-0.031 0.030c-0.004 0.006-0.007 0.013-0.007 0.021 0 0.012 0.005 0.022 0.014 0.028l0 0c0.005 0.003 0.011 0.006 0.017 0.007 0.013-0 0.024-0.008 0.030-0.018l0-0c0.003-0.005 0.005-0.010 0.005-0.016s-0.002-0.011-0.005-0.016l0 0c-0.015-0.019-0.033-0.020-0.035-0.026z"></path>
<path fill="#455a64" style="fill: var(--color11, #455a64)" d="M28.607 20.272l0.29 3.012h1.468l0.351-3.011h-2.11z"></path>
<path fill="#263238" style="fill: var(--color5, #263238)" d="M28.607 19.883c-0.085 0.106-0.137 0.243-0.137 0.392 0 0.002 0 0.004 0 0.006v-0h2.384c0.003-0.021 0.006-0.045 0.006-0.070 0-0.13-0.055-0.246-0.144-0.327l-0-0h-2.108z"></path>
<path fill="#263238" style="fill: var(--color5, #263238)" d="M28.879 19.607l-0.080 0.298 1.8 0.014-0.119-0.315-1.601 0.003z"></path>
<path fill="#ee4248" style="fill: var(--color8, #ee4248)" d="M28.58 21.026c0 0.028 0.169 1.518 0.169 1.518h1.794l0.169-1.516-2.131-0.002z"></path>
</symbol>
<symbol id="icon-mail" viewBox="0 0 40 32">
<path d="M0 4v24c0 2.209 1.791 4 4 4h32c2.209 0 4-1.791 4-4v-24c0-2.209-1.791-4-4-4h-32c-2.209 0-4 1.791-4 4zM36 7.737v20.263h-32v-20.263l16 10.667 16-10.667zM34.394 4l-14.394 9.596-14.394-9.596h28.789z"></path>
</symbol>
<symbol id="icon-product-description-1" viewBox="0 0 32 32">
<path fill="#efefef" style="fill: var(--color6, #efefef)" d="M23.984 3.479c-6.148 0.115-10.428-2.991-13.391-2.935s-9.152 1.875-8.897 15.502c0.255 13.628 8.661 15.47 11.92 15.41 15.257-0.285 21.254-28.18 10.368-27.977z"></path>
<path fill="#a4afc1" style="fill: var(--color7, #a4afc1)" d="M5.872 3.030l1.257-1.257 0.628 0.629-1.257 1.257-0.629-0.629z"></path>
<path fill="#a4afc1" style="fill: var(--color7, #a4afc1)" d="M2.257 6.644l1.258-1.258 0.629 0.629-1.258 1.258-0.629-0.629z"></path>
<path fill="#a4afc1" style="fill: var(--color7, #a4afc1)" d="M2.259 2.245l0.629-0.629 1.258 1.258-0.629 0.629-1.258-1.258z"></path>
<path fill="#a4afc1" style="fill: var(--color7, #a4afc1)" d="M29.537 13.727c-0.735 0-1.333-0.598-1.333-1.333s0.598-1.333 1.333-1.333c0.735 0 1.333 0.598 1.333 1.333s-0.598 1.333-1.333 1.333zM29.537 11.949c-0.244 0-0.444 0.199-0.444 0.444s0.2 0.444 0.444 0.444 0.444-0.199 0.444-0.444c0-0.245-0.2-0.444-0.444-0.444z"></path>
<path fill="#ee4248" style="fill: var(--color8, #ee4248)" d="M25.111 10h-18.222c-0.491 0-0.889-0.398-0.889-0.889v-2.222c0-0.491 0.398-0.889 0.889-0.889h18.222c0.491 0 0.889 0.398 0.889 0.889v2.222c0 0.491-0.398 0.889-0.889 0.889z"></path>
<path fill="#ee4248" style="fill: var(--color8, #ee4248)" d="M24 18c-1.105 0-2-0.895-2-2s0.895-2 2-2c1.105 0 2 0.895 2 2s-0.895 2-2 2z"></path>
<path fill="#ee4248" style="fill: var(--color8, #ee4248)" d="M24 26c-1.105 0-2-0.895-2-2s0.895-2 2-2c1.105 0 2 0.895 2 2s-0.895 2-2 2z"></path>
<path fill="#d5dbe1" style="fill: var(--color10, #d5dbe1)" d="M8 9.111v-2.222c0-0.491 0.398-0.889 0.889-0.889h-2c-0.491 0-0.889 0.398-0.889 0.889v2.222c0 0.491 0.398 0.889 0.889 0.889h2c-0.491 0-0.889-0.398-0.889-0.889z"></path>
<path fill="#ee4248" style="fill: var(--color8, #ee4248)" d="M24 16c0-0.739 0.404-1.376 1-1.723-0.295-0.172-0.634-0.277-1-0.277-1.105 0-2 0.895-2 2s0.895 2 2 2c0.366 0 0.705-0.106 1-0.277-0.596-0.347-1-0.984-1-1.723z"></path>
<path fill="#ee4248" style="fill: var(--color8, #ee4248)" d="M24 24c0-0.739 0.404-1.376 1-1.723-0.295-0.172-0.634-0.277-1-0.277-1.105 0-2 0.895-2 2s0.895 2 2 2c0.366 0 0.705-0.106 1-0.277-0.596-0.347-1-0.984-1-1.723z"></path>
<path fill="#000" style="fill: var(--color4, #000)" d="M25.111 10.667h-18.222c-0.858 0-1.556-0.698-1.556-1.556v-2.222c0-0.858 0.698-1.556 1.556-1.556h18.222c0.858 0 1.556 0.698 1.556 1.556v2.222c0 0.858-0.698 1.556-1.556 1.556zM6.889 6.667c-0.123 0-0.222 0.1-0.222 0.222v2.222c0 0.123 0.1 0.222 0.222 0.222h18.222c0.123 0 0.222-0.1 0.222-0.222v-2.222c0-0.123-0.1-0.222-0.222-0.222h-18.222z"></path>
<path fill="#000" style="fill: var(--color4, #000)" d="M6 14.222h12.889v1.333h-12.889v-1.333z"></path>
<path fill="#000" style="fill: var(--color4, #000)" d="M6 16.889h12.889v1.333h-12.889v-1.333z"></path>
<path fill="#000" style="fill: var(--color4, #000)" d="M6 22.222h12.889v1.333h-12.889v-1.333z"></path>
<path fill="#000" style="fill: var(--color4, #000)" d="M6 24.889h12.889v1.333h-12.889v-1.333z"></path>
<path fill="#000" style="fill: var(--color4, #000)" d="M24 18.667c-1.47 0-2.667-1.196-2.667-2.667s1.196-2.667 2.667-2.667c1.47 0 2.667 1.196 2.667 2.667s-1.196 2.667-2.667 2.667zM24 14.667c-0.735 0-1.333 0.598-1.333 1.333s0.598 1.333 1.333 1.333 1.333-0.598 1.333-1.333c0-0.735-0.598-1.333-1.333-1.333z"></path>
<path fill="#000" style="fill: var(--color4, #000)" d="M24 26.667c-1.47 0-2.667-1.196-2.667-2.667s1.196-2.667 2.667-2.667c1.47 0 2.667 1.196 2.667 2.667s-1.196 2.667-2.667 2.667zM24 22.667c-0.735 0-1.333 0.598-1.333 1.333s0.598 1.333 1.333 1.333 1.333-0.598 1.333-1.333c0-0.735-0.598-1.333-1.333-1.333z"></path>
</symbol>
<symbol id="icon-shuffle" viewBox="0 0 32 32">
<path d="M13.18 10.34l-10.36-10.34-2.82 2.82 10.34 10.34 2.84-2.82zM21 0l4.080 4.080-25.080 25.1 2.82 2.82 25.1-25.080 4.080 4.080v-11h-11zM18.84 21.64l2.82-2.82 6.26 6.26 4.080-4.080v11h-11l4.1-4.1-6.26-6.26z"></path>
</symbol>
<symbol id="icon-verified" viewBox="0 0 32 32">
<path fill="#efefef" style="fill: var(--color6, #efefef)" d="M28.296 7.446c0 6.148 3.185 10.371 3.185 13.333s-1.703 9.185-15.332 9.185-15.63-8.371-15.63-11.629c0-15.26 27.778-21.778 27.778-10.889z"></path>
<path fill="#a4afc1" style="fill: var(--color7, #a4afc1)" d="M3.108 5.333c-0.294 0-0.58-0.097-0.816-0.281-0.281-0.219-0.46-0.534-0.504-0.887s0.052-0.702 0.27-0.984c0.219-0.281 0.534-0.46 0.887-0.504 0.351-0.046 0.702 0.052 0.984 0.27s0.46 0.534 0.504 0.887c0.044 0.353-0.052 0.703-0.27 0.984s-0.534 0.46-0.887 0.504c-0.056 0.007-0.112 0.011-0.168 0.011zM3.111 3.556c-0.019 0-0.036 0.001-0.055 0.004-0.243 0.030-0.416 0.253-0.386 0.496s0.252 0.415 0.496 0.386c0.243-0.030 0.416-0.253 0.386-0.496-0.028-0.224-0.22-0.389-0.441-0.389z"></path>
<path fill="#f3f3f1" style="fill: var(--color9, #f3f3f1)" d="M24.222 24.222h-16.444c-0.982 0-1.778-0.796-1.778-1.778v-13.333h20v13.333c0 0.982-0.796 1.778-1.778 1.778z"></path>
<path fill="#ee4248" style="fill: var(--color8, #ee4248)" d="M26 9.111h-20v-1.333c0-0.982 0.796-1.778 1.778-1.778h16.444c0.982 0 1.778 0.796 1.778 1.778v1.333z"></path>
<path fill="#ee4248" style="fill: var(--color8, #ee4248)" d="M20.889 26c2.823 0 5.111-2.288 5.111-5.111s-2.288-5.111-5.111-5.111c-2.823 0-5.111 2.288-5.111 5.111s2.288 5.111 5.111 5.111z"></path>
<path fill="#ee4248" style="fill: var(--color8, #ee4248)" d="M22.444 12.222h-12.889v4h12.898l-0.009-4z"></path>
<path fill="#ee4248" style="fill: var(--color8, #ee4248)" d="M9.778 6h-2c-0.982 0-1.778 0.796-1.778 1.778v1.333h2v-1.333c0-0.982 0.796-1.778 1.778-1.778z"></path>
<path fill="#ee4248" style="fill: var(--color8, #ee4248)" d="M17.778 20.889c0-2.48 1.767-4.547 4.111-5.012-0.324-0.064-0.658-0.1-1-0.1-2.823 0-5.111 2.288-5.111 5.111s2.288 5.111 5.111 5.111c0.342 0 0.676-0.035 1-0.1-2.344-0.465-4.111-2.532-4.111-5.012z"></path>
<path fill="#ee4248" style="fill: var(--color8, #ee4248)" d="M9.556 12.222h2v4h-2v-4z"></path>
<path fill="#d5dbe1" style="fill: var(--color10, #d5dbe1)" d="M8 22.444v-13.333h-2v13.333c0 0.982 0.796 1.778 1.778 1.778h2c-0.982 0-1.778-0.796-1.778-1.778z"></path>
<path fill="#000" style="fill: var(--color4, #000)" d="M20.889 26.667c-3.186 0-5.778-2.592-5.778-5.778s2.592-5.778 5.778-5.778c3.186 0 5.778 2.592 5.778 5.778s-2.592 5.778-5.778 5.778zM20.889 16.444c-2.451 0-4.444 1.994-4.444 4.444s1.994 4.444 4.444 4.444c2.451 0 4.444-1.994 4.444-4.444s-1.994-4.444-4.444-4.444z"></path>
<path fill="#000" style="fill: var(--color4, #000)" d="M20 23.333c-0.177 0-0.347-0.070-0.471-0.196l-1.778-1.778 0.943-0.943 1.274 1.274 2.642-3.019 1.004 0.878-3.111 3.556c-0.122 0.139-0.295 0.221-0.48 0.228-0.007 0-0.015 0-0.022 0z"></path>
<path fill="#000" style="fill: var(--color4, #000)" d="M14.676 16.889h-5.12c-0.368 0-0.667-0.299-0.667-0.667v-4c0-0.368 0.299-0.667 0.667-0.667h12.889c0.368 0 0.667 0.299 0.667 0.667v1.049h-1.333v-0.382h-11.556v2.667h4.453v1.333z"></path>
<path fill="#000" style="fill: var(--color4, #000)" d="M8.933 18.213h5.111v1.333h-5.111v-1.333z"></path>
<path fill="#000" style="fill: var(--color4, #000)" d="M8.933 20.88h4.88v1.333h-4.88v-1.333z"></path>
<path fill="#000" style="fill: var(--color4, #000)" d="M13.858 24.889h-6.080c-1.348 0-2.444-1.096-2.444-2.444v-14.667c0-1.348 1.096-2.444 2.444-2.444h16.444c1.348 0 2.444 1.096 2.444 2.444v7.262h-1.333v-7.262c0-0.612-0.499-1.111-1.111-1.111h-16.444c-0.612 0-1.111 0.499-1.111 1.111v14.667c0 0.612 0.499 1.111 1.111 1.111h6.080v1.333z"></path>
<path fill="#000" style="fill: var(--color4, #000)" d="M6 8.444h20v1.333h-20v-1.333z"></path>
</symbol>
</defs>
</svg>
